<svg width="32" height="32" viewBox="0 0 32 32" fill="none" xmlns="http://www.w3.org/2000/svg">
<circle cx="16" cy="16" r="16" fill="#5C80BC"/>
<path d="M27.0852 8.84809C27.0749 8.67117 26.9999 8.5042 26.8746 8.37888C26.7493 8.25357 26.5823 8.17863 26.4054 8.16829C21.7266 7.8971 17.9698 9.31998 16.3553 11.9849C15.2886 13.7459 15.2904 15.8865 16.3408 17.9278C15.7436 18.6382 15.3067 19.4692 15.0599 20.364L13.5892 18.8923C14.2961 17.4161 14.269 15.8766 13.4988 14.5993C12.302 12.6304 9.54765 11.57 6.128 11.7752C5.95108 11.7855 5.78412 11.8605 5.65881 11.9858C5.5335 12.1111 5.45856 12.2781 5.44823 12.455C5.24665 15.8748 6.30337 18.6293 8.27308 19.8225C8.92422 20.22 9.67247 20.4299 10.4353 20.4291C11.1747 20.42 11.9025 20.2448 12.565 19.9165L14.8249 22.1765V24.7682C14.8249 24.96 14.9011 25.144 15.0367 25.2796C15.1723 25.4152 15.3563 25.4914 15.5481 25.4914C15.7399 25.4914 15.9238 25.4152 16.0594 25.2796C16.195 25.144 16.2712 24.96 16.2712 24.7682V22.1024C16.268 20.9519 16.6595 19.8351 17.3804 18.9384C18.3105 19.4245 19.3421 19.6847 20.3914 19.6978C21.406 19.701 22.4018 19.4239 23.2687 18.8968C25.9336 17.2841 27.36 13.5271 27.0852 8.84809ZM12.4801 17.784L10.2735 15.5783C10.1368 15.4484 9.95474 15.377 9.76617 15.3795C9.5776 15.3819 9.39743 15.4579 9.26408 15.5912C9.13072 15.7246 9.05474 15.9047 9.05233 16.0933C9.04991 16.2819 9.12126 16.464 9.25115 16.6007L11.4577 18.8073C10.589 19.0948 9.74652 19.0234 9.02245 18.585C7.63579 17.7452 6.85116 15.7573 6.87014 13.1972C9.42923 13.1746 11.4179 13.9629 12.2577 15.3496C12.6961 16.0737 12.7675 16.9162 12.4801 17.784ZM22.5193 17.6611C21.3081 18.3942 19.8843 18.4503 18.438 17.8419L23.2913 12.9875C23.427 12.8519 23.5033 12.6679 23.5034 12.4761C23.5035 12.2843 23.4273 12.1003 23.2918 11.9646C23.1562 11.8289 22.9723 11.7526 22.7805 11.7525C22.5886 11.7524 22.4046 11.8286 22.269 11.9641L17.4147 16.8131C16.8037 15.3668 16.8588 13.9421 17.5955 12.7316C18.8556 10.6525 21.8441 9.49535 25.6705 9.58304C25.7573 13.4087 24.6002 16.4009 22.5193 17.6611Z" fill="white"/>
</svg>
