<svg width="52" height="52" viewBox="0 0 52 52" fill="none" xmlns="http://www.w3.org/2000/svg">
<circle cx="26" cy="26" r="26" fill="#ADA296"/>
<path d="M29.7995 38C28.9787 38 28.1515 37.957 27.341 37.8721L25.4367 37.6709C21.6715 37.2734 18.2878 35.9487 15.9093 33.9409C12.1984 30.8096 11.0045 26.1353 12.8673 22.0327C14.6671 18.0728 19.0753 15.2402 24.6598 14.4556L26.2926 14.2256C27.3586 14.0757 28.4523 14 29.5431 14C33.4401 14 37.0788 15.1787 39.5255 17.2344C39.9484 17.5894 40.0036 18.2202 39.6481 18.6431C39.2926 19.0659 38.6623 19.1221 38.2394 18.7656C36.1466 17.0083 32.9772 16 29.5431 16C28.5451 16 27.5451 16.0693 26.5714 16.2061L24.9386 16.436C20.0353 17.125 16.2033 19.5264 14.6881 22.8599C13.2057 26.1245 14.1916 29.874 17.1994 32.4126C19.2755 34.165 22.2755 35.3262 25.6466 35.6816L27.5504 35.8828C28.2912 35.9604 29.048 36 29.7995 36C32.3507 36 36.4176 35.0063 38.6149 34.0786C39.1252 33.8618 39.7111 34.1025 39.9254 34.6108C40.1403 35.1196 39.902 35.7065 39.3932 35.9214C37.0251 36.9209 32.6842 38 29.7995 38Z" fill="black"/>
<path d="M28.2223 35C27.5856 35 26.9425 34.9629 26.3102 34.8892L24.6036 34.6885C21.7779 34.3564 19.2779 33.2866 17.5646 31.6763C15.1329 29.3916 14.3609 26.1602 15.5509 23.2432C16.7794 20.2354 19.9386 18.0601 24.0025 17.4248L25.4703 17.1948C26.2955 17.0654 27.1437 17 27.9923 17C30.7765 17 33.4186 17.6948 35.4317 18.9565L35.9171 19.2607C38.6896 20.9985 40.2096 23.7646 39.982 26.6587C39.7521 29.5908 37.8385 32.1094 34.733 33.5693L34.4645 33.6948C32.6744 34.5361 30.4571 35 28.2223 35ZM27.9923 19C27.2472 19 26.5025 19.0576 25.7799 19.1704L24.3116 19.4004C20.9464 19.9268 18.3634 21.646 17.4024 23.999C16.5328 26.1309 17.1197 28.5142 18.9342 30.2188C20.3375 31.5381 22.4342 32.4199 24.837 32.7021L26.5421 32.9028C29.026 33.1914 31.6446 32.8105 33.6158 31.8838L33.8844 31.7578C36.3194 30.6138 37.8155 28.6978 37.9879 26.5024C38.1559 24.3643 36.985 22.2905 34.8546 20.9551L34.3692 20.6509C32.6705 19.5864 30.4059 19 27.9923 19Z" fill="black"/>
<path d="M27.6837 32C27.19 32 26.693 31.9697 26.2062 31.9106L24.5787 31.7104C22.5123 31.4565 20.7247 30.6792 19.5465 29.5215C18.0748 28.0747 17.6129 26.1411 18.3121 24.3481C19.0987 22.333 21.2692 20.8521 24.1178 20.3862L25.5226 20.1562C26.1559 20.0527 26.8087 20 27.463 20C29.5641 20 31.5211 20.5244 32.9742 21.4766L33.44 21.7812C35.192 22.9297 36.1188 24.624 35.983 26.4302C35.8443 28.27 34.6192 29.8877 32.6217 30.8687L32.3697 30.9922C31.048 31.6416 29.3834 32 27.6837 32ZM27.463 22C26.9166 22 26.3722 22.0439 25.8458 22.1299L24.441 22.3599C22.297 22.7104 20.7023 23.7256 20.1754 25.0752C19.7706 26.1133 20.0524 27.2144 20.9483 28.0947C21.8146 28.9458 23.1905 29.5249 24.8224 29.7251L26.4488 29.9253C28.2335 30.144 30.1236 29.8672 31.4894 29.1963L31.7413 29.0728C33.0851 28.4131 33.9049 27.395 33.9889 26.2803C34.068 25.2217 33.4689 24.1914 32.3443 23.4546L31.8785 23.1499C30.7467 22.4082 29.1788 22 27.463 22Z" fill="black"/>
<path d="M26.5983 29C26.2956 29 25.9899 28.9795 25.6891 28.937L24.2668 28.7373C23.1173 28.5762 22.1652 28.1289 21.5861 27.4785C21.0334 26.8579 20.8581 26.085 21.1066 25.3579C21.4445 24.3677 22.5216 23.6128 23.9879 23.3389L25.216 23.1089C26.7716 22.8179 28.5168 23.1416 29.5485 23.9136L29.9591 24.2207C30.6745 24.7568 31.0412 25.4683 30.9914 26.2241C30.9386 27.0249 30.4284 27.7363 29.5539 28.227L29.3371 28.3491C28.589 28.769 27.6164 29 26.5983 29ZM22.9958 26.0166C22.9958 26.0166 23.0031 26.062 23.0797 26.1484C23.278 26.3711 23.7668 26.6475 24.5451 26.7568L25.967 26.9565C26.842 27.0776 27.7707 26.9346 28.3581 26.605L28.5749 26.4829C28.9123 26.2939 28.9938 26.1245 28.9958 26.0928C28.9967 26.0786 28.9572 25.9692 28.7604 25.8218L28.3503 25.5151C27.7726 25.0825 26.5832 24.8862 25.5841 25.0747L24.3556 25.3047C23.3571 25.4912 23.0021 25.9189 22.9958 26.0166Z" fill="black"/>
</svg>
