<svg width="52" height="52" viewBox="0 0 52 52" fill="none" xmlns="http://www.w3.org/2000/svg">
<circle cx="26" cy="26" r="26" fill="#3E517A"/>
<path d="M10.7083 20.2083H22.75V11.7083H10.7083C10.3187 11.7083 10 12.0271 10 12.4166V19.5C10 19.8896 10.3187 20.2083 10.7083 20.2083Z" fill="white"/>
<path d="M33.283 29.955C33.368 30.0258 33.4813 30.1179 33.5238 30.1462C33.538 30.1179 33.6584 30.0116 33.7434 29.9408C34.2675 29.4804 35.153 28.7083 36.768 28.7083C37.3842 28.7083 37.9013 28.8216 38.3334 28.9987V23.75C38.3334 18.6216 34.6784 14.322 29.8334 13.3375V19.2733C31.505 20.0666 32.6667 21.7737 32.6667 23.75V29.4591C32.9217 29.6362 33.12 29.8133 33.283 29.955Z" fill="white"/>
<path d="M43.2917 30.125C42.2079 30.125 41.6483 30.6137 41.195 31.0104C40.8267 31.3292 40.5787 31.5417 40.0262 31.5417C39.4808 31.5417 39.2329 31.3292 38.8646 31.0104C38.4112 30.6137 37.8446 30.125 36.7679 30.125C35.6842 30.125 35.1246 30.6137 34.6713 31.0104C34.3029 31.3292 34.055 31.5417 33.5096 31.5417C32.9571 31.5417 32.7162 31.3292 32.3408 31.0104C31.8946 30.6137 31.3279 30.125 30.2512 30.125C29.1675 30.125 28.6079 30.6137 28.1546 31.0104C27.7862 31.3292 27.5383 31.5417 26.9929 31.5417C26.4404 31.5417 26.1996 31.3292 25.8313 31.0104C25.3779 30.6137 24.8183 30.125 23.7346 30.125C22.6579 30.125 22.0912 30.6137 21.6379 31.0104C21.2696 31.3292 21.0288 31.5417 20.4763 31.5417C19.9237 31.5417 19.6829 31.3292 19.3146 31.0104C18.8612 30.6137 18.3017 30.125 17.2179 30.125C16.1413 30.125 15.5817 30.6137 15.1283 31.0104C14.7529 31.3292 14.5121 31.5417 13.9596 31.5417C13.4142 31.5417 13.1733 31.3292 12.7979 31.0104C12.3517 30.6137 11.785 30.125 10.7083 30.125C10.3187 30.125 10 30.4437 10 30.8333C10 31.2229 10.3187 31.5417 10.7083 31.5417C11.2537 31.5417 11.5017 31.7542 11.87 32.0729C12.3233 32.4696 12.8829 32.9583 13.9596 32.9583C15.0433 32.9583 15.6029 32.4696 16.0563 32.0729C16.4246 31.7542 16.6725 31.5417 17.2179 31.5417C17.7704 31.5417 18.0112 31.7542 18.3796 32.0729C18.8329 32.4696 19.3996 32.9583 20.4763 32.9583C21.5529 32.9583 22.1196 32.4696 22.5729 32.0729C22.9412 31.7542 23.1821 31.5417 23.7346 31.5417C24.2871 31.5417 24.5279 31.7542 24.8962 32.0729C25.3496 32.4696 25.9162 32.9583 26.9929 32.9583C28.0696 32.9583 28.6362 32.4696 29.0825 32.0729C29.4579 31.7542 29.6987 31.5417 30.2512 31.5417C30.7967 31.5417 31.0446 31.7542 31.4129 32.0729C31.8662 32.4696 32.4258 32.9583 33.5096 32.9583C34.5862 32.9583 35.1458 32.4696 35.5992 32.0729C35.9746 31.7542 36.2154 31.5417 36.7679 31.5417C37.3204 31.5417 37.5612 31.7542 37.9367 32.0729C38.39 32.4696 38.9496 32.9583 40.0262 32.9583C41.11 32.9583 41.6696 32.4696 42.1229 32.0729C42.4983 31.7542 42.7392 31.5417 43.2917 31.5417C43.6812 31.5417 44 31.2229 44 30.8333C44 30.4437 43.6812 30.125 43.2917 30.125Z" fill="white"/>
<path d="M43.2917 37.2083C42.2079 37.2083 41.6483 37.6971 41.195 38.0937C40.8267 38.4125 40.5787 38.625 40.0262 38.625C39.4808 38.625 39.2329 38.4125 38.8646 38.0937C38.4112 37.6971 37.8446 37.2083 36.7679 37.2083C35.6842 37.2083 35.1246 37.6971 34.6713 38.0937C34.3029 38.4125 34.055 38.625 33.5096 38.625C32.9571 38.625 32.7162 38.4125 32.3408 38.0937C31.8946 37.6971 31.3279 37.2083 30.2512 37.2083C29.1675 37.2083 28.6079 37.6971 28.1546 38.0937C27.7862 38.4125 27.5383 38.625 26.9929 38.625C26.4404 38.625 26.1996 38.4125 25.8313 38.0937C25.3779 37.6971 24.8183 37.2083 23.7346 37.2083C22.6579 37.2083 22.0912 37.6971 21.6379 38.0937C21.2696 38.4125 21.0288 38.625 20.4763 38.625C19.9237 38.625 19.6829 38.4125 19.3146 38.0937C18.8612 37.6971 18.3017 37.2083 17.2179 37.2083C16.1413 37.2083 15.5817 37.6971 15.1283 38.0937C14.7529 38.4125 14.5121 38.625 13.9596 38.625C13.4142 38.625 13.1733 38.4125 12.7979 38.0937C12.3517 37.6971 11.785 37.2083 10.7083 37.2083C10.3187 37.2083 10 37.5271 10 37.9166C10 38.3062 10.3187 38.625 10.7083 38.625C11.2537 38.625 11.5017 38.8375 11.87 39.1562C12.3233 39.5529 12.8829 40.0416 13.9596 40.0416C15.0433 40.0416 15.6029 39.5529 16.0563 39.1562C16.4246 38.8375 16.6725 38.625 17.2179 38.625C17.7704 38.625 18.0112 38.8375 18.3796 39.1562C18.8329 39.5529 19.3996 40.0416 20.4763 40.0416C21.5529 40.0416 22.1196 39.5529 22.5729 39.1562C22.9412 38.8375 23.1821 38.625 23.7346 38.625C24.2871 38.625 24.5279 38.8375 24.8962 39.1562C25.3496 39.5529 25.9162 40.0416 26.9929 40.0416C28.0696 40.0416 28.6362 39.5529 29.0825 39.1562C29.4579 38.8375 29.6987 38.625 30.2512 38.625C30.7967 38.625 31.0446 38.8375 31.4129 39.1562C31.8662 39.5529 32.4258 40.0416 33.5096 40.0416C34.5862 40.0416 35.1458 39.5529 35.5992 39.1562C35.9746 38.8375 36.2154 38.625 36.7679 38.625C37.3204 38.625 37.5612 38.8375 37.9367 39.1562C38.39 39.5529 38.9496 40.0416 40.0262 40.0416C41.11 40.0416 41.6696 39.5529 42.1229 39.1562C42.4983 38.8375 42.7392 38.625 43.2917 38.625C43.6812 38.625 44 38.3062 44 37.9166C44 37.5271 43.6812 37.2083 43.2917 37.2083Z" fill="white"/>
<path d="M43.2917 33.6667C42.2079 33.6667 41.6483 34.1554 41.195 34.5521C40.8267 34.8709 40.5787 35.0834 40.0262 35.0834C39.4808 35.0834 39.2329 34.8709 38.8646 34.5521C38.4112 34.1554 37.8446 33.6667 36.7679 33.6667C35.6842 33.6667 35.1246 34.1554 34.6713 34.5521C34.3029 34.8709 34.055 35.0834 33.5096 35.0834C32.9571 35.0834 32.7162 34.8709 32.3408 34.5521C31.8946 34.1554 31.3279 33.6667 30.2512 33.6667C29.1675 33.6667 28.6079 34.1554 28.1546 34.5521C27.7862 34.8709 27.5383 35.0834 26.9929 35.0834C26.4404 35.0834 26.1996 34.8709 25.8313 34.5521C25.3779 34.1554 24.8183 33.6667 23.7346 33.6667C22.6579 33.6667 22.0912 34.1554 21.6379 34.5521C21.2696 34.8709 21.0288 35.0834 20.4763 35.0834C19.9237 35.0834 19.6829 34.8709 19.3146 34.5521C18.8612 34.1554 18.3017 33.6667 17.2179 33.6667C16.1413 33.6667 15.5817 34.1554 15.1283 34.5521C14.7529 34.8709 14.5121 35.0834 13.9596 35.0834C13.4142 35.0834 13.1733 34.8709 12.7979 34.5521C12.3517 34.1554 11.785 33.6667 10.7083 33.6667C10.3187 33.6667 10 33.9854 10 34.375C10 34.7646 10.3187 35.0834 10.7083 35.0834C11.2537 35.0834 11.5017 35.2959 11.87 35.6146C12.3233 36.0113 12.8829 36.5 13.9596 36.5C15.0433 36.5 15.6029 36.0113 16.0563 35.6146C16.4246 35.2959 16.6725 35.0834 17.2179 35.0834C17.7704 35.0834 18.0112 35.2959 18.3796 35.6146C18.8329 36.0113 19.3996 36.5 20.4763 36.5C21.5529 36.5 22.1196 36.0113 22.5729 35.6146C22.9412 35.2959 23.1821 35.0834 23.7346 35.0834C24.2871 35.0834 24.5279 35.2959 24.8962 35.6146C25.3496 36.0113 25.9162 36.5 26.9929 36.5C28.0696 36.5 28.6362 36.0113 29.0825 35.6146C29.4579 35.2959 29.6987 35.0834 30.2512 35.0834C30.7967 35.0834 31.0446 35.2959 31.4129 35.6146C31.8662 36.0113 32.4258 36.5 33.5096 36.5C34.5862 36.5 35.1458 36.0113 35.5992 35.6146C35.9746 35.2959 36.2154 35.0834 36.7679 35.0834C37.3204 35.0834 37.5612 35.2959 37.9367 35.6146C38.39 36.0113 38.9496 36.5 40.0262 36.5C41.11 36.5 41.6696 36.0113 42.1229 35.6146C42.4983 35.2959 42.7392 35.0834 43.2917 35.0834C43.6812 35.0834 44 34.7646 44 34.375C44 33.9854 43.6812 33.6667 43.2917 33.6667Z" fill="white"/>
<path d="M24.875 11C24.4854 11 24.1666 11.3188 24.1666 11.7083V20.2083C24.1666 20.5979 24.4854 20.9167 24.875 20.9167H27.7083C28.0979 20.9167 28.4166 20.5979 28.4166 20.2083V11.7083C28.4166 11.3188 28.0979 11 27.7083 11H24.875Z" fill="white"/>
</svg>
