<svg width="32" height="32" viewBox="0 0 32 32" fill="none" xmlns="http://www.w3.org/2000/svg">
<circle cx="16" cy="16" r="16" fill="#5C80BC"/>
<path d="M29.0377 19.5922H28.1873L26.6239 14.1338C26.5416 13.8595 26.2947 13.6675 25.993 13.6675H20.2603V14.9567H22.5918V19.6196H9.94689V14.9567H17.3802V13.6675H6.54566C6.24394 13.6675 5.99708 13.8595 5.91479 14.1338L4.40618 19.5922H3.52844C3.36387 19.5922 3.25415 19.7293 3.25415 19.8665V20.6071C3.25415 20.7717 3.3913 20.8814 3.52844 20.8814H29.0102C29.1748 20.8814 29.2845 20.7442 29.2845 20.6071V19.8665C29.3119 19.7293 29.1748 19.5922 29.0377 19.5922Z" fill="white"/>
<path d="M13.3208 10.0743H14.802C14.8843 10.0743 14.9666 9.99206 14.9666 9.90977V9.66291C14.9666 9.58062 14.8843 9.49833 14.802 9.49833H14.6649C14.7746 9.19661 15.0763 8.97718 15.4055 8.97718H15.57C15.762 9.25147 16.0638 9.41605 16.3929 9.41605C16.7495 9.41605 17.0512 9.25147 17.2158 8.97718H18.2032V14.9568H19.3278V8.12687C19.3278 7.98973 19.2181 7.85258 19.0536 7.85258H17.1884C17.0512 7.66057 16.8592 7.52343 16.6398 7.44114V7.05713H16.9689C17.1335 7.05713 17.2432 6.91998 17.2432 6.78284C17.2432 6.61826 17.1061 6.50854 16.9689 6.50854H15.7346C15.57 6.50854 15.4603 6.64569 15.4603 6.78284C15.4603 6.94741 15.5975 7.05713 15.7346 7.05713H16.0638V7.44114C15.8443 7.496 15.6523 7.66057 15.5152 7.85258H15.3506C14.3906 7.85258 13.5677 8.56574 13.4306 9.49833H13.2386C13.1563 9.49833 13.074 9.58062 13.074 9.66291V9.90977C13.1837 9.99206 13.2386 10.0743 13.3208 10.0743Z" fill="white"/>
<path d="M14.0888 10.6503C14.034 10.6503 13.9791 10.6777 13.9517 10.7326C13.9517 10.7326 13.6225 11.3634 13.5402 11.528C13.4579 11.72 13.4579 11.912 13.5402 12.0766C13.6499 12.296 13.842 12.4057 14.0888 12.4057C14.1985 12.4057 14.2808 12.3783 14.3631 12.3509C14.5003 12.2686 14.61 12.1589 14.6648 11.9943C14.7197 11.8297 14.6923 11.6652 14.6374 11.528L14.226 10.7326C14.226 10.7051 14.1711 10.6503 14.0888 10.6503Z" fill="white"/>
<path d="M13.458 16.4652C13.458 16.2184 13.266 16.0264 13.0191 16.0264H11.4008C11.1539 16.0264 10.9619 16.2184 10.9619 16.4652C10.9619 16.7121 11.1539 16.9041 11.4008 16.9041H13.0191C13.266 16.9041 13.458 16.6847 13.458 16.4652Z" fill="white"/>
<path d="M12.3607 18.5224H14.1711C14.4179 18.5224 14.6099 18.3304 14.6099 18.0835C14.6099 17.8367 14.4179 17.6447 14.1711 17.6447H12.3607C12.1139 17.6447 11.9219 17.8367 11.9219 18.0835C11.9219 18.3304 12.1413 18.5224 12.3607 18.5224Z" fill="white"/>
<path d="M17.2157 16.4652C17.2157 16.2184 17.0237 16.0264 16.7769 16.0264H15.4877C15.2408 16.0264 15.0488 16.2184 15.0488 16.4652C15.0488 16.7121 15.2408 16.9041 15.4877 16.9041H16.7769C17.0237 16.9041 17.2157 16.6847 17.2157 16.4652Z" fill="white"/>
<path d="M16.2831 18.5224H17.682C17.9289 18.5224 18.1209 18.3304 18.1209 18.0835C18.1209 17.8367 17.9289 17.6447 17.682 17.6447H16.2831C16.0362 17.6447 15.8442 17.8367 15.8442 18.0835C15.8442 18.3304 16.0637 18.5224 16.2831 18.5224Z" fill="white"/>
<path d="M20.4798 16.0264H19.026C18.7792 16.0264 18.5872 16.2184 18.5872 16.4652C18.5872 16.7121 18.7792 16.9041 19.026 16.9041H20.4798C20.7266 16.9041 20.9186 16.7121 20.9186 16.4652C20.9186 16.2184 20.7266 16.0264 20.4798 16.0264Z" fill="white"/>
<path d="M19.3552 18.0835C19.3552 18.3304 19.5472 18.5224 19.7941 18.5224H21.1656C21.4124 18.5224 21.6044 18.3304 21.6044 18.0835C21.6044 17.8367 21.4124 17.6447 21.1656 17.6447H19.7941C19.5472 17.6447 19.3552 17.8367 19.3552 18.0835Z" fill="white"/>
</svg>
