<svg width="52" height="52" viewBox="0 0 52 52" fill="none" xmlns="http://www.w3.org/2000/svg">
<circle cx="26" cy="26" r="26" fill="#08415C"/>
<path d="M15.5688 22.3824C14.9585 21.8743 13.9292 21.8768 13.3208 22.3819C12.9422 22.6971 12.4807 22.8896 12 22.9636V24.9277C12.2495 24.8687 12.4879 24.7778 12.6802 24.6181C13.6675 23.7949 15.2183 23.7939 16.2095 24.6181C16.8188 25.1247 17.8481 25.1247 18.4575 24.6181C18.621 24.482 18.8037 24.3768 18.993 24.2857L19.706 22.084C19.4832 22.146 19.2721 22.2378 19.0981 22.3824C18.1099 23.2052 16.5571 23.2052 15.5688 22.3824Z" fill="white"/>
<path d="M16.0144 33.4848L16.5343 31.8793C16.1845 31.7787 15.8524 31.6185 15.5688 31.3824C14.9585 30.8743 13.9292 30.8768 13.3208 31.3819C12.9422 31.6971 12.4807 31.8896 12 31.9636V33.9277C12.2495 33.8687 12.4879 33.7778 12.6802 33.6181C13.6066 32.8456 15.0236 32.8069 16.0144 33.4848Z" fill="white"/>
<path d="M36.4311 22.3824C35.4428 23.2052 33.8901 23.2052 32.9018 22.3824C32.7278 22.2378 32.5167 22.146 32.2939 22.084L33.0069 24.2857C33.1962 24.3768 33.3789 24.482 33.5424 24.6181C34.1518 25.1247 35.1811 25.1247 35.7905 24.6181C36.7807 23.7934 38.3305 23.7944 39.3207 24.6181C39.5126 24.7779 39.7507 24.8691 39.9999 24.9281V22.9637C39.5195 22.8897 39.0583 22.6973 38.6801 22.3819C38.0707 21.8748 37.0405 21.8763 36.4311 22.3824Z" fill="white"/>
<path d="M39.3208 33.6181C39.5126 33.7779 39.7508 33.8691 40 33.9281V31.9637C39.5195 31.8897 39.0584 31.6973 38.6802 31.3819C38.0708 30.8748 37.0405 30.8763 36.4312 31.3824C36.1476 31.6185 35.8155 31.7787 35.4657 31.8793L35.9855 33.4847C36.9755 32.8063 38.3916 32.8452 39.3208 33.6181Z" fill="white"/>
<path d="M15.5688 25.3824C14.9585 24.8743 13.9292 24.8768 13.3208 25.3819C12.9422 25.6971 12.4807 25.8896 12 25.9636V27.9277C12.2495 27.8687 12.4879 27.7778 12.6802 27.6181C13.6675 26.7949 15.2183 26.7939 16.2095 27.6181C16.6363 27.9729 17.2654 28.0641 17.8157 27.9219L18.5249 25.7316C17.5758 26.1702 16.3829 26.0601 15.5688 25.3824Z" fill="white"/>
<path d="M16.2095 30.6181C16.3903 30.7685 16.6118 30.8597 16.8447 30.9208L17.4703 28.9884C16.79 29.0202 16.0986 28.8235 15.5688 28.3824C14.9585 27.8743 13.9292 27.8768 13.3208 28.3819C12.9422 28.6971 12.4807 28.8896 12 28.9636V30.9277C12.2495 30.8687 12.4879 30.7778 12.6802 30.6181C13.6675 29.7949 15.2183 29.7939 16.2095 30.6181Z" fill="white"/>
<path d="M39.3208 30.6181C39.5126 30.7779 39.7508 30.8691 40 30.9281V28.9637C39.5195 28.8897 39.0584 28.6973 38.6802 28.3819C38.0708 27.8748 37.0405 27.8763 36.4312 28.3824C35.9014 28.8235 35.21 29.0202 34.5297 28.9884L35.1553 30.9208C35.3882 30.8597 35.6097 30.7685 35.7905 30.6181C36.7808 29.7934 38.3306 29.7944 39.3208 30.6181Z" fill="white"/>
<path d="M36.4312 25.3824C35.6171 26.0601 34.4242 26.1702 33.4751 25.7316L34.1843 27.9219C34.7346 28.0641 35.3637 27.9729 35.7905 27.6181C36.7808 26.7934 38.3306 26.7944 39.3208 27.6181C39.5126 27.7779 39.7508 27.8691 40 27.9281V25.9637C39.5195 25.8897 39.0584 25.6973 38.6802 25.3819C38.0708 24.8748 37.0405 24.8763 36.4312 25.3824Z" fill="white"/>
<path d="M12.6802 18.6181C13.6675 17.795 15.2183 17.794 16.2095 18.6181C16.8188 19.1248 17.8481 19.1248 18.4575 18.6181C19.1543 18.0381 20.1292 17.8759 20.9915 18.1137L21.5839 16.2841C20.4737 15.8087 19.051 15.9436 18.1357 16.7107C17.7305 17.0503 16.9385 17.0517 16.5293 16.7102C15.4004 15.7638 13.4883 15.7638 12.3594 16.7102C12.1318 16.9005 12 17.1824 12 17.4794V18.9277C12.2495 18.8687 12.4879 18.7778 12.6802 18.6181Z" fill="white"/>
<path d="M14.8546 37.0669C14.3213 36.9512 13.7288 37.0431 13.3208 37.382C12.9422 37.6971 12.4807 37.8896 12 37.9636V40H13.9048L14.8546 37.0669Z" fill="white"/>
<path d="M38.6802 37.382C38.2717 37.042 37.6788 36.9512 37.1455 37.0672L38.0952 40H40V37.9637C39.5195 37.8897 39.0584 37.6973 38.6802 37.382Z" fill="white"/>
<path d="M31.0085 18.1137C31.8708 17.8759 32.8457 18.0381 33.5425 18.6181C34.1519 19.1248 35.1812 19.1248 35.7905 18.6181C36.7808 17.7935 38.3306 17.7945 39.3208 18.6181C39.5126 18.7779 39.7508 18.8691 40 18.9282V17.4794C40 17.1824 39.8682 16.9005 39.6406 16.7102C38.5117 15.7638 36.5996 15.7638 35.4707 16.7102C35.0625 17.0517 34.2715 17.0508 33.8633 16.7102C32.9496 15.9435 31.5265 15.8084 30.416 16.284L31.0085 18.1137Z" fill="white"/>
<path d="M15.1672 36.1015L15.6957 34.4692C15.6542 34.4388 15.6085 34.4155 15.5688 34.3824C14.9585 33.8743 13.9292 33.8768 13.3208 34.3819C12.9422 34.6971 12.4807 34.8896 12 34.9636V36.9277C12.2495 36.8687 12.4879 36.7778 12.6802 36.6181C13.364 36.0479 14.3158 35.8818 15.1672 36.1015Z" fill="white"/>
<path d="M19.0981 19.3824C18.1099 20.2052 16.5571 20.2052 15.5688 19.3824C14.9585 18.8743 13.9292 18.8768 13.3208 19.3819C12.9422 19.6971 12.4807 19.8896 12 19.9636V21.9277C12.2495 21.8687 12.4879 21.7778 12.6802 21.6181C13.6675 20.7949 15.2183 20.7939 16.2095 21.6181C16.8188 22.1247 17.8481 22.1247 18.4575 21.6181C18.9073 21.2436 19.4749 21.0485 20.0521 21.0149L20.6803 19.0748C20.1356 18.9415 19.5189 19.0326 19.0981 19.3824Z" fill="white"/>
<path d="M36.4312 19.3824C35.4429 20.2052 33.8901 20.2052 32.9019 19.3824C32.4811 19.0326 31.8644 18.9415 31.3197 19.0748L31.9479 21.0149C32.5251 21.0485 33.0927 21.2436 33.5425 21.6181C34.1519 22.1247 35.1812 22.1247 35.7905 21.6181C36.7808 20.7934 38.3306 20.7944 39.3208 21.6181C39.5126 21.7779 39.7508 21.8691 40 21.9281V19.9637C39.5195 19.8897 39.0584 19.6973 38.6802 19.3819C38.0708 18.8748 37.0405 18.8763 36.4312 19.3824Z" fill="white"/>
<path d="M39.3208 36.6181C39.5126 36.7779 39.7508 36.8691 40 36.9281V34.9637C39.5195 34.8897 39.0584 34.6973 38.6802 34.3819C38.0708 33.8748 37.0405 33.8763 36.4312 34.3824C36.3915 34.4155 36.3458 34.4388 36.3043 34.4692L36.8327 36.1011C37.6835 35.8815 38.6351 36.0477 39.3208 36.6181Z" fill="white"/>
<path d="M28.2231 12.694C28.0901 12.2804 27.7054 12 27.2711 12H24.7289C24.2946 12 23.9099 12.2804 23.7769 12.694L15 40H37L28.2231 12.694ZM32 28C32 28.5522 31.5523 29 31 29C30.4477 29 30 28.5522 30 28C30 27.4477 30.4477 27 31 27C31.5523 27 32 27.4477 32 28ZM32 34C32 34.5522 31.5523 35 31 35C30.4477 35 30 34.5522 30 34C30 33.4477 30.4477 33 31 33C31.5523 33 32 33.4477 32 34ZM30 24C30.5523 24 31 24.4477 31 25C31 25.5522 30.5523 26 30 26C29.4477 26 29 25.5522 29 25C29 24.4477 29.4477 24 30 24ZM27 27C27 26.4477 27.4477 26 28 26C28.5523 26 29 26.4477 29 27C29 27.5522 28.5523 28 28 28C27.4477 28 27 27.5522 27 27ZM28 30C28 30.5522 27.5523 31 27 31C26.4477 31 26 30.5522 26 30C26 29.4477 26.4477 29 27 29C27.5523 29 28 29.4477 28 30ZM28 24C27.4477 24 27 23.5522 27 23C27 22.4477 27.4477 22 28 22C28.5523 22 29 22.4477 29 23C29 23.5522 28.5523 24 28 24ZM28 16C28.5523 16 29 16.4477 29 17C29 17.5522 28.5523 18 28 18C27.4477 18 27 17.5522 27 17C27 16.4477 27.4477 16 28 16ZM27 19C27.5523 19 28 19.4477 28 20C28 20.5522 27.5523 21 27 21C26.4477 21 26 20.5522 26 20C26 19.4477 26.4477 19 27 19ZM25 14C25.5523 14 26 14.4477 26 15C26 15.5522 25.5523 16 25 16C24.4477 16 24 15.5522 24 15C24 14.4477 24.4477 14 25 14ZM24 17C24.5523 17 25 17.4477 25 18C25 18.5522 24.5523 19 24 19C23.4477 19 23 18.5522 23 18C23 17.4477 23.4477 17 24 17ZM24 21C24.5523 21 25 21.4477 25 22C25 22.5522 24.5523 23 24 23C23.4477 23 23 22.5522 23 22C23 21.4477 23.4477 21 24 21ZM24 24C24.5523 24 25 24.4477 25 25C25 25.5522 24.5523 26 24 26C23.4477 26 23 25.5522 23 25C23 24.4477 23.4477 24 24 24ZM23 30C23 30.5522 22.5523 31 22 31C21.4477 31 21 30.5522 21 30C21 29.4477 21.4477 29 22 29C22.5523 29 23 29.4477 23 30ZM21 26C21.5523 26 22 26.4477 22 27C22 27.5522 21.5523 28 21 28C20.4477 28 20 27.5522 20 27C20 26.4477 20.4477 26 21 26ZM20 31C20.5523 31 21 31.4477 21 32C21 32.5522 20.5523 33 20 33C19.4477 33 19 32.5522 19 32C19 31.4477 19.4477 31 20 31ZM18 38C17.4477 38 17 37.5522 17 37C17 36.4477 17.4477 36 18 36C18.5523 36 19 36.4477 19 37C19 37.5522 18.5523 38 18 38ZM19 35C19 34.4477 19.4477 34 20 34C20.5523 34 21 34.4477 21 35C21 35.5522 20.5523 36 20 36C19.4477 36 19 35.5522 19 35ZM21 39C20.4477 39 20 38.5522 20 38C20 37.4477 20.4477 37 21 37C21.5523 37 22 37.4477 22 38C22 38.5522 21.5523 39 21 39ZM22 33C22 32.4477 22.4477 32 23 32C23.5523 32 24 32.4477 24 33C24 33.5522 23.5523 34 23 34C22.4477 34 22 33.5522 22 33ZM24 38C23.4477 38 23 37.5522 23 37C23 36.4477 23.4477 36 24 36C24.5523 36 25 36.4477 25 37C25 37.5522 24.5523 38 24 38ZM25 29C24.4477 29 24 28.5522 24 28C24 27.4477 24.4477 27 25 27C25.5523 27 26 27.4477 26 28C26 28.5522 25.5523 29 25 29ZM26 33C26 32.4477 26.4477 32 27 32C27.5523 32 28 32.4477 28 33C28 33.5522 27.5523 34 27 34C26.4477 34 26 33.5522 26 33ZM28 39C27.4477 39 27 38.5522 27 38C27 37.4477 27.4477 37 28 37C28.5523 37 29 37.4477 29 38C29 38.5522 28.5523 39 28 39ZM29 31C29 30.4477 29.4477 30 30 30C30.5523 30 31 30.4477 31 31C31 31.5522 30.5523 32 30 32C29.4477 32 29 31.5522 29 31ZM31 38C30.4477 38 30 37.5522 30 37C30 36.4477 30.4477 36 31 36C31.5523 36 32 36.4477 32 37C32 37.5522 31.5523 38 31 38ZM32 35C32 34.4477 32.4477 34 33 34C33.5523 34 34 34.4477 34 35C34 35.5522 33.5523 36 33 36C32.4477 36 32 35.5522 32 35ZM34 39C33.4477 39 33 38.5522 33 38C33 37.4477 33.4477 37 34 37C34.5523 37 35 37.4477 35 38C35 38.5522 34.5523 39 34 39Z" fill="white"/>
</svg>
