<svg width="52" height="52" viewBox="0 0 52 52" fill="none" xmlns="http://www.w3.org/2000/svg">
<circle cx="26" cy="26" r="26" fill="#725752"/>
<path d="M27.7995 38C26.9787 38 26.1515 37.957 25.341 37.8721L23.4367 37.6709C19.6715 37.2734 16.2878 35.9487 13.9093 33.9409C10.1984 30.8096 9.00455 26.1353 10.8673 22.0327C12.6671 18.0728 17.0753 15.2402 22.6598 14.4556L24.2926 14.2256C25.3586 14.0757 26.4523 14 27.5431 14C31.4401 14 35.0788 15.1787 37.5255 17.2344C37.9484 17.5894 38.0036 18.2202 37.6481 18.6431C37.2926 19.0659 36.6623 19.1221 36.2394 18.7656C34.1466 17.0083 30.9772 16 27.5431 16C26.5451 16 25.5451 16.0693 24.5714 16.2061L22.9386 16.436C18.0353 17.125 14.2033 19.5264 12.6881 22.8599C11.2057 26.1245 12.1916 29.874 15.1994 32.4126C17.2755 34.165 20.2755 35.3262 23.6466 35.6816L25.5504 35.8828C26.2912 35.9604 27.048 36 27.7995 36C30.3507 36 34.4176 35.0063 36.6149 34.0786C37.1252 33.8618 37.7111 34.1025 37.9254 34.6108C38.1403 35.1196 37.902 35.7065 37.3932 35.9214C35.0251 36.9209 30.6842 38 27.7995 38Z" fill="black"/>
<path d="M29.2223 35C28.5856 35 27.9425 34.9629 27.3102 34.8892L25.6036 34.6885C22.7779 34.3564 20.2779 33.2866 18.5646 31.6763C16.1329 29.3916 15.3609 26.1602 16.5509 23.2432C17.7794 20.2354 20.9386 18.0601 25.0025 17.4248L26.4703 17.1948C27.2955 17.0654 28.1437 17 28.9923 17C31.7765 17 34.4186 17.6948 36.4317 18.9565L36.9171 19.2607C39.6896 20.9985 41.2096 23.7646 40.982 26.6587C40.7521 29.5908 38.8385 32.1094 35.733 33.5693L35.4645 33.6948C33.6744 34.5361 31.4571 35 29.2223 35ZM28.9923 19C28.2472 19 27.5025 19.0576 26.7799 19.1704L25.3116 19.4004C21.9464 19.9268 19.3634 21.646 18.4024 23.999C17.5328 26.1309 18.1197 28.5142 19.9342 30.2188C21.3375 31.5381 23.4342 32.4199 25.837 32.7021L27.5421 32.9028C30.026 33.1914 32.6446 32.8105 34.6158 31.8838L34.8844 31.7578C37.3194 30.6138 38.8155 28.6978 38.9879 26.5024C39.1559 24.3643 37.985 22.2905 35.8546 20.9551L35.3692 20.6509C33.6705 19.5864 31.4059 19 28.9923 19Z" fill="black"/>
<path d="M29.6022 29.9968C29.2995 29.9968 28.9938 29.9763 28.693 29.9338L27.2707 29.7341C26.1212 29.5729 25.1691 29.1257 24.59 28.4753C24.0373 27.8547 23.862 27.0817 24.1105 26.3547C24.4484 25.3644 25.5255 24.6096 26.9919 24.3356L28.2199 24.1056C29.7755 23.8146 31.5207 24.1384 32.5524 24.9103L32.963 25.2175C33.6784 25.7536 34.0451 26.465 33.9953 27.2209C33.9425 28.0217 33.4323 28.7331 32.5578 29.2238L32.341 29.3459C31.5929 29.7658 30.6203 29.9968 29.6022 29.9968ZM25.9997 27.0134C25.9997 27.0134 26.007 27.0588 26.0836 27.1452C26.2819 27.3679 26.7707 27.6442 27.549 27.7536L28.9709 27.9533C29.8459 28.0744 30.7746 27.9313 31.362 27.6017L31.5788 27.4797C31.9162 27.2907 31.9977 27.1213 31.9997 27.0895C32.0006 27.0754 31.9611 26.966 31.7643 26.8185L31.3542 26.5119C30.7765 26.0793 29.5871 25.883 28.588 26.0715L27.3595 26.3014C26.361 26.488 26.006 26.9157 25.9997 27.0134Z" fill="black"/>
</svg>
