<svg width="52" height="52" viewBox="0 0 52 52" fill="none" xmlns="http://www.w3.org/2000/svg">
<circle cx="26" cy="26" r="26" fill="#96C0B7"/>
<path d="M45.8575 24.8139C45.5521 24.8029 45.2468 24.8385 44.9515 24.9197C45.354 23.6632 45.4932 22.3329 45.3599 21.0167C45.38 20.9993 45.3954 20.9769 45.4046 20.9516C45.6209 20.2109 45.6359 19.4231 45.4479 18.6742C45.4429 18.6533 45.4339 18.6337 45.4214 18.6164C45.409 18.5992 45.3933 18.5847 45.3753 18.5737C45.3573 18.5628 45.3374 18.5558 45.3168 18.5529C45.2961 18.5501 45.2751 18.5515 45.255 18.5572C45.2143 18.5681 45.1796 18.5951 45.1583 18.6324C45.137 18.6697 45.131 18.7142 45.1415 18.7561C45.2537 19.2136 45.2844 19.6883 45.232 20.1571C45.1341 19.6434 44.993 19.1394 44.8104 18.651C44.8029 18.631 44.7916 18.6127 44.7772 18.5973C44.7628 18.5818 44.7457 18.5694 44.7266 18.5608C44.7076 18.5521 44.6871 18.5475 44.6664 18.547C44.6456 18.5465 44.6249 18.5503 44.6056 18.5581C44.5862 18.5658 44.5685 18.5775 44.5535 18.5923C44.5385 18.6071 44.5265 18.6248 44.5181 18.6445C44.5098 18.6641 44.5052 18.6852 44.5048 18.7066C44.5043 18.7281 44.508 18.7494 44.5155 18.7693C45.2553 20.7624 45.2868 22.9613 44.6043 24.976C44.6013 24.9877 44.5997 24.9996 44.5994 25.0116C44.3651 25.0774 44.1103 25.1589 43.8397 25.2532C44.0907 23.8481 44.2412 22.4259 44.2899 20.998C44.3411 20.6111 44.2572 20.218 44.0533 19.8889C44.0384 19.8698 44.0195 19.8543 43.9981 19.8437C43.9766 19.833 43.9531 19.8275 43.9293 19.8275H43.9284C43.9044 19.8274 43.8808 19.8331 43.8593 19.844C43.8378 19.8549 43.819 19.8707 43.8043 19.8903C43.5178 20.3268 43.3437 20.8313 43.2984 21.3564C43.2375 21.7625 43.1964 22.1715 43.1753 22.5818C43.1152 21.9687 43.0822 21.36 43.0499 20.7617C42.9603 19.1058 42.876 17.5423 42.2504 16.0967C42.2366 16.0656 42.2138 16.0397 42.1851 16.0225C42.1564 16.0053 42.1232 15.9977 42.0902 16.0006C42.057 16.0042 42.0258 16.0184 42.0009 16.0413C41.976 16.0642 41.9588 16.0945 41.9516 16.1281C41.4632 18.4902 41.6727 20.9491 42.5532 23.1871C41.9755 22.3841 41.1883 21.7671 40.2834 21.4083C40.2549 21.3977 40.224 21.3958 40.1944 21.4028C40.1649 21.4098 40.1379 21.4254 40.1167 21.4477C40.0955 21.4701 40.081 21.4982 40.0748 21.5288C40.0687 21.5595 40.0712 21.5913 40.0821 21.6204C40.685 23.2426 41.8147 24.5988 43.2785 25.4582C42.8076 25.639 42.3001 25.8529 41.7735 26.0918C41.7328 25.7229 41.6629 25.3581 41.5645 25.0011C41.4482 24.573 41.2306 24.1814 40.9314 23.8614C40.9167 23.8461 40.8992 23.834 40.8799 23.8257C40.8606 23.8174 40.8398 23.8131 40.8189 23.8131C40.798 23.8131 40.7773 23.8174 40.758 23.8257C40.7387 23.8341 40.7212 23.8463 40.7065 23.8616C40.6917 23.877 40.6801 23.8952 40.6723 23.9152C40.6645 23.9352 40.6605 23.9566 40.6608 23.9782C40.661 23.9997 40.6654 24.021 40.6736 24.0409C40.6819 24.0607 40.6939 24.0786 40.7089 24.0936C40.9711 24.3759 41.1613 24.7209 41.2625 25.0976C41.3632 25.4681 41.4338 25.8466 41.4736 26.2292C41.333 26.2946 41.1914 26.3615 41.0488 26.4301L41.0471 26.4243C40.5801 25.5074 40.3246 24.4917 40.3006 23.4562C40.2997 23.4136 40.2826 23.3731 40.2531 23.3433C40.2236 23.3135 40.1839 23.2968 40.1426 23.2968H40.1391C40.1183 23.2973 40.0978 23.3019 40.0788 23.3105C40.0597 23.3191 40.0426 23.3315 40.0282 23.347C40.0138 23.3625 40.0026 23.3808 39.9951 23.4008C39.9876 23.4208 39.984 23.4421 39.9845 23.4635C40.0094 24.5466 40.2761 25.6091 40.7638 26.5687C40.2107 26.8407 39.6484 27.1351 39.0923 27.444C39.328 27.0947 39.4998 26.7039 39.5992 26.291C39.7358 25.6569 39.7807 25.0054 39.7325 24.3577C39.6838 22.9578 39.3863 21.5791 38.8549 20.2899C38.911 20.2508 38.9593 20.2009 38.997 20.143C39.071 20.0144 39.1131 19.8689 39.1197 19.7196C39.158 19.2625 39.0645 18.8039 38.8509 18.4015C38.8216 18.3235 38.7677 18.2579 38.6978 18.2154C38.628 18.1729 38.5463 18.1558 38.466 18.167C38.4019 18.1868 38.345 18.2258 38.3024 18.2791C38.2599 18.3323 38.2337 18.3974 38.2271 18.4661C38.2223 18.4939 38.2196 18.5226 38.217 18.5508C38.2157 18.5658 38.2148 18.5804 38.2126 18.5941C38.1494 18.5162 38.0696 18.4544 37.9795 18.4135C37.8894 18.3725 37.7914 18.3536 37.693 18.3582C37.6309 18.3678 37.5717 18.3917 37.5198 18.4281C37.4679 18.4645 37.4247 18.5125 37.3932 18.5685C37.3514 18.6455 37.3269 18.7311 37.3215 18.8192C37.3161 18.9072 37.3299 18.9953 37.3619 19.0771C37.5424 19.5757 37.8778 19.9987 38.3159 20.28C38.3848 20.3281 38.4627 20.3607 38.5445 20.3756L38.5482 20.3759C39.0758 21.6415 39.3702 22.9973 39.4164 24.3741C39.4624 24.9893 39.4208 25.6081 39.2928 26.2108C39.2029 26.5856 39.0472 26.9403 38.8332 27.2571C39.0574 26.5839 39.14 25.8692 39.0755 25.1606C39.011 24.4519 38.801 23.7655 38.4594 23.1471C38.258 22.7315 37.9345 22.3922 37.535 22.1777C37.5055 22.1635 37.4725 22.1592 37.4405 22.1653C37.4085 22.1715 37.3792 22.1877 37.3566 22.2119C37.334 22.2358 37.319 22.2663 37.3136 22.2992C37.3083 22.3322 37.3128 22.3661 37.3266 22.3963C38.1222 24.1389 38.4058 26.0837 38.1424 27.9906C37.5725 28.3307 37.0221 28.6824 36.5088 29.038C36.5501 28.8026 36.5838 28.5664 36.6054 28.3285C36.6105 28.3259 36.6162 28.327 36.6212 28.3239C37.1478 27.9817 37.5913 27.5194 37.9173 26.9725C37.9282 26.9543 37.9355 26.934 37.9388 26.9129C37.9421 26.8917 37.9413 26.8701 37.9365 26.8493C37.9317 26.8284 37.923 26.8087 37.9108 26.7914C37.8987 26.774 37.8833 26.7593 37.8656 26.7481C37.8479 26.7368 37.8283 26.7293 37.8078 26.7259C37.7873 26.7225 37.7663 26.7233 37.7461 26.7282C37.7259 26.7331 37.7068 26.7422 37.69 26.7547C37.6732 26.7672 37.6589 26.7831 37.648 26.8013C37.3843 27.2396 37.0382 27.619 36.6303 27.9173C36.6366 27.7712 36.6408 27.6255 36.6398 27.4793C37.1681 26.9351 37.5656 26.2711 37.8007 25.5402C37.8136 25.4992 37.8102 25.4546 37.7913 25.4162C37.7724 25.3778 37.7395 25.3486 37.6998 25.3352C37.6601 25.3217 37.6169 25.3249 37.5795 25.3443C37.5422 25.3636 37.5138 25.3973 37.5005 25.4382C37.3123 26.0167 37.0148 26.5509 36.6252 27.0101C36.6121 26.7912 36.5881 26.5737 36.559 26.3565C36.5652 26.3539 36.5713 26.3533 36.5775 26.3501C36.6304 26.3208 36.6755 26.2786 36.709 26.2272C37.093 25.6978 37.3355 25.0738 37.4122 24.4174C37.4172 24.3744 37.4054 24.3312 37.3795 24.2971C37.3536 24.2631 37.3157 24.241 37.2741 24.2357C37.2534 24.2329 37.2324 24.2343 37.2122 24.24C37.1921 24.2456 37.1733 24.2554 37.1569 24.2687C37.1405 24.282 37.1268 24.2985 37.1167 24.3173C37.1066 24.3361 37.1002 24.3568 37.0979 24.3782C37.0281 24.9487 36.8235 25.4928 36.5021 25.9627C36.469 25.7785 36.4285 25.5959 36.3839 25.4144C36.3914 25.4045 36.4023 25.3981 36.4075 25.3863C36.6748 24.7739 36.839 24.1191 36.8931 23.4499C36.8949 23.4285 36.8926 23.407 36.8863 23.3865C36.88 23.3661 36.8699 23.3471 36.8565 23.3307C36.8431 23.3143 36.8266 23.3008 36.8082 23.2909C36.7897 23.2811 36.7695 23.2751 36.7488 23.2733C36.7281 23.2715 36.7072 23.2739 36.6874 23.2805C36.6676 23.287 36.6492 23.2975 36.6333 23.3114C36.6175 23.3252 36.6044 23.3422 36.5949 23.3613C36.5854 23.3803 36.5796 23.4012 36.5779 23.4226C36.5347 23.9369 36.4228 24.4427 36.2451 24.9254C36.2209 24.8466 36.1977 24.7676 36.1713 24.6897C36.2585 24.1066 36.2609 23.5133 36.1784 22.9295C36.1718 22.8869 36.1493 22.8486 36.1157 22.8229C36.0822 22.7971 36.0402 22.7859 35.9987 22.7915C35.9572 22.7979 35.9198 22.8209 35.8948 22.8557C35.8697 22.8904 35.859 22.934 35.865 22.9768C35.9096 23.3186 35.9235 23.6639 35.9066 24.0083C35.7657 23.6775 35.604 23.3565 35.4226 23.0474C35.4118 23.0291 35.3975 23.0131 35.3807 23.0004C35.3638 22.9878 35.3447 22.9787 35.3245 22.9737C35.3042 22.9687 35.2832 22.9678 35.2626 22.9712C35.242 22.9746 35.2223 22.9822 35.2046 22.9934C35.1868 23.0047 35.1714 23.0195 35.1593 23.0369C35.1471 23.0544 35.1383 23.0741 35.1336 23.095C35.1288 23.116 35.1281 23.1376 35.1315 23.1588C35.1349 23.18 35.1423 23.2004 35.1533 23.2186C35.3737 23.5927 35.564 23.9847 35.7224 24.3908C35.4378 24.26 35.1768 24.0802 34.9507 23.8592C34.9357 23.8442 34.918 23.8325 34.8986 23.8246C34.8792 23.8167 34.8585 23.8129 34.8376 23.8133C34.8168 23.8137 34.7962 23.8183 34.7771 23.827C34.758 23.8356 34.7407 23.8481 34.7263 23.8636C34.7119 23.8791 34.7006 23.8975 34.693 23.9175C34.6855 23.9376 34.6819 23.959 34.6824 23.9805C34.6829 24.002 34.6875 24.0232 34.696 24.0428C34.7045 24.0625 34.7166 24.0802 34.7318 24.095C35.0579 24.4137 35.4479 24.6547 35.8742 24.801C35.9071 24.8984 35.9369 24.9968 35.9663 25.0953C35.6522 25.0339 35.3415 24.9553 35.0355 24.8599C34.9953 24.8484 34.9524 24.8531 34.9156 24.8733C34.8788 24.8935 34.8509 24.9275 34.8377 24.9683C34.8255 25.0097 34.8297 25.0545 34.8494 25.0927C34.8691 25.1309 34.9027 25.1595 34.9428 25.1723C35.3118 25.2872 35.6873 25.3787 36.0671 25.4463C36.1149 25.6362 36.1562 25.8277 36.1909 26.0207C35.8662 25.9653 35.5513 25.8601 35.2566 25.7086C35.2192 25.6892 35.1758 25.6859 35.1359 25.6995C35.0961 25.713 35.0632 25.7424 35.0443 25.781C35.0255 25.8197 35.0223 25.8644 35.0354 25.9055C35.0486 25.9466 35.077 25.9806 35.1145 26C35.4685 26.1819 35.8489 26.3028 36.2407 26.3579C36.3763 27.3042 36.3498 28.2676 36.1625 29.2044C36.1578 29.2296 36.1591 29.2555 36.1662 29.28C35.7378 29.5887 35.3411 29.8986 34.9891 30.2045C35.3449 29.2199 35.5348 28.1798 35.5507 27.1292C35.551 27.1077 35.5472 27.0865 35.5394 27.0666C35.5317 27.0467 35.5203 27.0286 35.5058 27.0132C35.4912 26.9979 35.4739 26.9857 35.4548 26.9773C35.4357 26.9689 35.4152 26.9645 35.3944 26.9643H35.3926C35.351 26.9644 35.3111 26.9813 35.2815 27.0115C35.2519 27.0416 35.2351 27.0826 35.2346 27.1255C35.2251 27.9162 35.1133 28.702 34.9022 29.4621C34.9796 28.0529 34.7444 26.644 34.2144 25.3426C34.2027 25.3146 34.1837 25.2905 34.1594 25.2732C34.1351 25.2558 34.1066 25.2457 34.0771 25.2442C34.0475 25.242 34.0179 25.2488 33.992 25.2636C33.966 25.2785 33.9448 25.3009 33.931 25.328C33.6259 25.8948 33.2463 26.4154 32.8031 26.8751C32.7885 26.8903 32.7768 26.9083 32.7689 26.9281C32.761 26.948 32.757 26.9692 32.757 26.9906C32.757 27.0121 32.7612 27.0333 32.7692 27.0531C32.7771 27.0728 32.7888 27.0908 32.8036 27.1059C32.8183 27.1211 32.8358 27.1331 32.855 27.1412C32.8742 27.1494 32.8948 27.1536 32.9156 27.1535C32.9363 27.1535 32.9569 27.1492 32.9761 27.141C32.9953 27.1327 33.0127 27.1207 33.0274 27.1055C33.4145 26.7039 33.7555 26.2577 34.0436 25.7755C34.5997 27.3379 34.7427 29.0246 34.4579 30.6628C34.4528 30.6407 34.4464 30.6189 34.4387 30.5977C34.3675 30.4564 34.2482 30.3472 34.1038 30.291C34.1007 30.2758 34.0955 30.2611 34.0882 30.2475C33.7892 29.7413 33.6763 29.1413 33.7699 28.5565C33.7734 28.5354 33.7729 28.5137 33.7683 28.4928C33.7637 28.4719 33.7552 28.4521 33.7432 28.4346C33.7312 28.4171 33.7159 28.4022 33.6983 28.3908C33.6807 28.3793 33.6611 28.3716 33.6406 28.368C33.6201 28.3644 33.5991 28.365 33.5789 28.3698C33.5586 28.3746 33.5394 28.3835 33.5225 28.3959C33.5055 28.4084 33.4911 28.4241 33.4801 28.4423C33.4691 28.4605 33.4616 28.4807 33.4582 28.5019C33.3673 29.0896 33.4604 29.692 33.7242 30.2213C33.64 30.2212 33.5584 30.2275 33.4821 30.2334C33.3219 30.2366 33.1637 30.2702 33.0155 30.3327C32.8747 30.4145 32.7534 30.5277 32.6605 30.664C32.5676 30.8004 32.5055 30.9565 32.4786 31.1208C32.4274 31.3353 32.4007 31.5553 32.399 31.7762C32.3782 31.6705 32.3304 31.5726 32.2606 31.4923C32.0626 31.2878 31.8085 31.1511 31.5326 31.1008C31.3098 31.0313 31.0713 31.0365 30.8515 31.1158C30.7317 31.1748 30.6265 31.2609 30.5435 31.3677C30.4606 31.4745 30.4021 31.5993 30.3725 31.7327C30.3305 31.9082 30.3126 32.0888 30.3194 32.2694C30.2246 32.2034 30.1126 32.1686 29.9982 32.1698C29.8862 32.1789 29.7783 32.2164 29.6839 32.2791C29.5895 32.3418 29.5117 32.4277 29.4574 32.529C29.4289 32.5834 29.405 32.6403 29.3859 32.6989C29.3561 32.637 29.3229 32.577 29.2865 32.519C29.1753 32.33 29.0077 32.1834 28.8087 32.1011C28.6098 32.0189 28.3904 32.0054 28.1834 32.0628C27.808 32.1457 27.4784 32.3757 27.2643 32.7043C27.2486 32.653 27.2265 32.6041 27.1985 32.5586C27.1212 32.4471 27.0165 32.3586 26.8952 32.3023C26.7735 32.215 26.6289 32.168 26.4806 32.1675C26.3324 32.1671 26.1875 32.2134 26.0653 32.3C25.9967 32.3684 25.9428 32.4508 25.9071 32.542C25.8715 32.6333 25.8548 32.7312 25.8583 32.8295C25.8565 32.8856 25.8578 32.942 25.8592 32.9985C25.8597 33.0196 25.8567 33.0372 25.857 33.0577C25.6522 32.8576 25.3899 32.7315 25.1096 32.6984C24.9681 32.687 24.8258 32.7055 24.6915 32.7527C24.6923 32.7059 24.6879 32.6591 24.6784 32.6133C24.6409 32.4585 24.5589 32.3191 24.4432 32.2134C24.3274 32.1077 24.1833 32.0406 24.0299 32.0209C23.884 32.0046 23.7365 32.0236 23.5989 32.0763C23.4614 32.129 23.3376 32.214 23.2375 32.3246C23.1483 32.4216 23.0754 32.5334 23.0219 32.6552C22.9037 32.3591 22.6908 32.1136 22.4186 31.9595C22.2514 31.8915 22.0722 31.8604 21.8925 31.8682C21.7129 31.8761 21.5369 31.9227 21.3758 32.005C21.2301 31.7003 20.9738 31.4672 20.6625 31.3562C20.4503 31.3102 20.2293 31.3367 20.033 31.4318C20.0103 31.4418 19.9945 31.4559 19.9731 31.4667C20.2966 30.5374 20.3237 29.5258 20.0503 28.5796C20.0643 28.5403 20.0631 28.4969 20.0469 28.4585C20.0307 28.4201 20.0008 28.3897 19.9633 28.3735C19.9361 28.3673 19.908 28.3671 19.8807 28.3729C19.8534 28.3788 19.8277 28.3905 19.8051 28.4073C19.7825 28.4241 19.7637 28.4456 19.7498 28.4705C19.7358 28.4954 19.7272 28.523 19.7243 28.5515C19.3712 29.4718 19.2094 30.4582 19.2493 31.447C19.2049 31.1983 19.173 30.9473 19.1537 30.6951C19.1372 30.2009 19.0343 29.7138 18.85 29.2573C18.8437 29.2385 18.8336 29.2213 18.8203 29.2069C18.807 29.1926 18.7909 29.1813 18.773 29.1739C18.7551 29.1666 18.7359 29.1633 18.7167 29.1643C18.6975 29.1653 18.6787 29.1706 18.6616 29.1798C18.9951 28.5719 19.3862 27.9995 19.8291 27.4711C19.8495 27.4467 19.8625 27.4166 19.8664 27.3846C19.8704 27.3526 19.865 27.3202 19.8512 27.2913C19.8384 27.2613 19.8167 27.2363 19.789 27.2201C19.7614 27.204 19.7295 27.1975 19.698 27.2016C19.3136 27.2522 18.9608 27.4474 18.7074 27.7498C18.3616 28.1262 18.0848 28.564 17.8902 29.0421C18.1135 27.9723 18.6121 26.9844 19.3337 26.1821C19.4509 26.0513 19.5769 25.9291 19.7107 25.8165L19.8123 26.2272C19.8276 26.3177 19.8772 26.3983 19.95 26.4512C20.0114 26.4844 20.0818 26.4959 20.1502 26.4838C20.2185 26.4717 20.2811 26.4367 20.3283 26.3843C20.4163 26.3072 20.4929 26.2173 20.5557 26.1175C20.6233 26.1977 20.7038 26.2653 20.7936 26.3174C20.8931 26.3775 21.0079 26.4051 21.1229 26.3963C21.2378 26.3875 21.3475 26.3428 21.4372 26.2682C21.4611 26.2458 21.4778 26.2163 21.485 26.1839C21.4922 26.1514 21.4895 26.1174 21.4774 26.0865C21.3328 25.7173 21.1156 25.3829 20.8395 25.1044C20.8115 25.0763 20.7744 25.0599 20.7353 25.0584C20.7185 25.0575 20.7018 25.0575 20.6845 25.0575C20.0627 25.1315 19.4942 25.4554 19.1024 25.959C18.6487 26.4623 18.2765 27.0377 18.0004 27.6631C18.0429 27.3378 18.0608 27.0097 18.054 26.6816C18.0039 25.926 17.8638 25.1796 17.6368 24.4593C17.6269 24.4236 17.6056 24.3925 17.5763 24.371C17.547 24.3494 17.5115 24.3389 17.4756 24.3409C17.4397 24.343 17.4056 24.3576 17.3788 24.3823C17.352 24.4071 17.3342 24.4405 17.3282 24.477C17.0951 25.7507 16.9437 27.0388 16.8749 28.333C16.8396 28.8408 16.8953 29.3509 17.0393 29.8378C16.8779 29.7605 16.7458 29.6301 16.6638 29.4672C16.5509 29.2231 16.4813 28.9602 16.4581 28.6909C16.3942 28.2249 16.3569 27.7577 16.3356 27.2903C16.3382 27.2889 16.3412 27.2897 16.3438 27.2881C16.6012 27.1376 16.8105 26.9129 16.9459 26.6416C16.9644 26.6031 16.9675 26.5587 16.9544 26.5179C16.9414 26.4772 16.9133 26.4434 16.8762 26.4239C16.8391 26.4043 16.7961 26.4006 16.7565 26.4136C16.7168 26.4266 16.6837 26.4552 16.6643 26.4931C16.582 26.649 16.4679 26.7846 16.3298 26.8906C16.3268 26.7354 16.3215 26.5802 16.3231 26.4251C16.6237 26.1658 16.8605 25.8366 17.0139 25.4646C17.03 25.4248 17.0301 25.38 17.0143 25.3401C16.9984 25.3002 16.9679 25.2684 16.9294 25.2516C16.8908 25.2349 16.8474 25.2346 16.8086 25.2508C16.7699 25.267 16.7389 25.2983 16.7225 25.338C16.6275 25.5662 16.4964 25.7766 16.3345 25.9605C16.3401 25.8227 16.3528 25.6853 16.3621 25.5478C16.6334 25.1923 16.8324 24.784 16.9472 24.3473C16.9526 24.3266 16.954 24.305 16.9512 24.2838C16.9485 24.2626 16.9418 24.2421 16.9313 24.2236C16.9209 24.205 16.9071 24.1888 16.8905 24.1758C16.874 24.1628 16.8552 24.1533 16.8351 24.1479C16.815 24.1419 16.794 24.1402 16.7733 24.1428C16.7526 24.1455 16.7326 24.1524 16.7145 24.1632C16.6965 24.174 16.6807 24.1885 16.6682 24.2057C16.6557 24.2229 16.6467 24.2426 16.6418 24.2635C16.5867 24.4744 16.5098 24.6785 16.4123 24.8723C16.4566 24.4758 16.5141 24.0803 16.5892 23.6866C16.5973 23.6441 16.5887 23.6001 16.5653 23.5641C16.5418 23.5282 16.5055 23.5033 16.4643 23.495C16.4231 23.4866 16.3804 23.4955 16.3455 23.5197C16.3106 23.5439 16.2865 23.5813 16.2784 23.6238C16.1743 24.1745 16.0995 24.7306 16.0543 25.2898C15.8437 24.9452 15.7376 24.5436 15.7496 24.1365C15.7512 24.0934 15.7361 24.0514 15.7077 24.0197C15.6793 23.988 15.6399 23.9692 15.5982 23.9674C15.5564 23.9656 15.5156 23.9809 15.4847 24.01C15.4539 24.0392 15.4355 24.0797 15.4335 24.1228C15.4116 24.6678 15.5746 25.2036 15.8944 25.6381C15.9091 25.6581 15.9281 25.6744 15.9499 25.6855C15.9718 25.6967 15.9958 25.7024 16.0202 25.7023L16.0252 25.7006C15.974 26.6155 16.0026 27.5333 16.1105 28.443C15.9988 28.43 15.8916 28.39 15.7977 28.3263C15.7037 28.2626 15.6257 28.1769 15.5699 28.0762C15.56 28.0574 15.5466 28.0407 15.5305 28.0273C15.5143 28.0138 15.4957 28.0037 15.4758 27.9976C15.4559 27.9915 15.435 27.9895 15.4143 27.9918C15.3937 27.994 15.3736 28.0004 15.3554 28.0107C15.3371 28.0209 15.321 28.0347 15.3079 28.0514C15.2948 28.068 15.2851 28.0872 15.2792 28.1077C15.2733 28.1283 15.2713 28.1498 15.2735 28.1711C15.2757 28.1924 15.2819 28.2131 15.2918 28.2319C15.3775 28.3912 15.5015 28.5249 15.652 28.6201C15.8024 28.7153 15.9742 28.7689 16.1506 28.7756C16.1795 29.0359 16.2451 29.2904 16.3455 29.5311C15.7837 29.1146 15.2245 28.7183 14.6679 28.342C14.7718 28.2536 14.8514 28.1388 14.8989 28.0088C14.9161 27.9676 14.9284 27.9239 14.9448 27.8823C14.9856 27.89 15.0269 27.8949 15.0684 27.8968C15.199 27.8968 15.3282 27.869 15.4479 27.8152C15.5676 27.7614 15.6753 27.6827 15.7642 27.584C15.7925 27.552 15.8073 27.5097 15.8054 27.4665C15.8035 27.4232 15.785 27.3824 15.754 27.3532C15.723 27.324 15.682 27.3087 15.64 27.3106C15.598 27.3126 15.5585 27.3317 15.5302 27.3637C15.4696 27.4292 15.3965 27.481 15.3154 27.5158C15.2343 27.5506 15.1472 27.5676 15.0594 27.5657C15.1027 27.437 15.1408 27.307 15.1765 27.1755L15.1801 27.1747C15.336 27.1 15.4737 26.9901 15.5829 26.8531C15.6921 26.7161 15.77 26.5556 15.811 26.3834C15.8158 26.3625 15.8165 26.3409 15.8131 26.3197C15.8098 26.2986 15.8024 26.2783 15.7915 26.2601C15.7805 26.2419 15.7662 26.226 15.7493 26.2135C15.7325 26.201 15.7134 26.192 15.6931 26.1871C15.6729 26.1822 15.6519 26.1815 15.6314 26.1849C15.6109 26.1884 15.5913 26.196 15.5736 26.2073C15.5559 26.2186 15.5406 26.2333 15.5285 26.2507C15.5163 26.2681 15.5076 26.2878 15.5029 26.3087C15.4673 26.4538 15.3947 26.5864 15.2926 26.6928C15.3693 26.3122 15.4139 25.9255 15.4261 25.537C15.4267 25.5155 15.4232 25.4942 15.4158 25.4742C15.4085 25.4541 15.3973 25.4358 15.383 25.4202C15.3687 25.4047 15.3516 25.3922 15.3326 25.3835C15.3137 25.3747 15.2932 25.37 15.2724 25.3694H15.268C15.2268 25.3694 15.1873 25.3859 15.1577 25.4155C15.1282 25.4451 15.1111 25.4854 15.11 25.5279C15.0866 26.3373 14.9165 27.1351 14.6085 27.88C14.59 27.9262 14.5677 27.9706 14.5418 28.0129C14.4326 27.6401 14.3894 27.2501 14.4143 26.8614C14.3658 25.7863 14.5985 24.7174 15.0879 23.7668C15.1089 23.7318 15.1163 23.69 15.1087 23.6496C15.101 23.6093 15.079 23.5734 15.0468 23.5491C15.0147 23.5248 14.9748 23.5139 14.9353 23.5185C14.8957 23.5232 14.8592 23.543 14.8332 23.5742C13.923 24.6791 13.4285 26.0849 13.44 27.5347C13.1329 27.341 12.8288 27.1559 12.5271 26.9766C12.9603 26.3499 13.205 25.6055 13.2308 24.8363C13.2645 24.5622 13.2184 24.284 13.0984 24.037C12.9783 23.7901 12.7898 23.5855 12.5567 23.4494C12.5347 23.4406 12.5112 23.4369 12.4877 23.4384C12.4642 23.44 12.4413 23.4469 12.4207 23.4585C12.4001 23.4704 12.3824 23.4868 12.3688 23.5067C12.3552 23.5265 12.3461 23.5493 12.3421 23.5732C12.2029 24.4028 12.1309 25.2428 12.1267 26.0846C12.0635 25.9116 11.9759 25.7491 11.8667 25.6025C11.711 25.404 11.5123 25.2458 11.2865 25.1409C11.2888 25.1315 11.2974 25.1257 11.2981 25.1158C11.3203 24.8158 11.3734 24.5191 11.4564 24.2307L11.9329 24.1228C11.9739 24.1135 12.0096 24.0878 12.0322 24.0513C12.0548 24.0149 12.0624 23.9706 12.0534 23.9284C12.0493 23.9073 12.041 23.8873 12.0292 23.8695C12.0174 23.8518 12.0023 23.8367 11.9847 23.8251C11.9671 23.8135 11.9474 23.8057 11.9269 23.8021C11.9063 23.7984 11.8852 23.7991 11.8649 23.8041L11.5718 23.8706C11.6275 23.7176 11.691 23.5678 11.7621 23.4217L12.8246 23.392C12.8454 23.3915 12.8659 23.3867 12.8848 23.378C12.9038 23.3693 12.9209 23.3568 12.9352 23.3412C12.9495 23.3256 12.9606 23.3073 12.968 23.2873C12.9754 23.2672 12.9789 23.2459 12.9782 23.2245C12.976 23.1348 12.9147 23.0783 12.8158 23.066L11.9384 23.0906C12.0223 22.9509 12.1132 22.8158 12.2109 22.6859C12.4382 22.7489 12.6671 22.8064 12.8975 22.8548C12.9386 22.8635 12.9813 22.855 13.0163 22.8311C13.0514 22.8073 13.0758 22.7701 13.0842 22.7277C13.0926 22.6854 13.0844 22.6413 13.0613 22.6051C13.0382 22.569 13.0021 22.5438 12.961 22.5351C12.7858 22.498 12.6128 22.4522 12.4397 22.4068C12.5304 22.3029 12.6233 22.2023 12.7226 22.1078C13.0428 22.2077 13.365 22.3009 13.681 22.3772C13.6929 22.3798 13.705 22.3812 13.7172 22.3813C13.756 22.3813 13.7935 22.3666 13.8225 22.34C13.8515 22.3134 13.87 22.2767 13.8745 22.237C13.8789 22.1972 13.8691 22.1571 13.8467 22.1244C13.8244 22.0916 13.7912 22.0685 13.7534 22.0594C13.5079 22.0001 13.2586 21.9277 13.0098 21.8539C13.0953 21.786 13.1864 21.7272 13.2767 21.6664C13.6113 21.7661 13.9578 21.8176 14.3061 21.8194C14.3348 21.8194 14.3639 21.8189 14.3926 21.818C14.4344 21.8169 14.4741 21.7987 14.5029 21.7675C14.5318 21.7363 14.5474 21.6945 14.5465 21.6514C14.5456 21.6083 14.5281 21.5673 14.498 21.5375C14.4678 21.5076 14.4274 21.4913 14.3856 21.4921C14.1473 21.4949 13.9094 21.4723 13.6756 21.4247C13.9261 21.2881 14.2017 21.2076 14.4845 21.1884C14.5052 21.1877 14.5256 21.1828 14.5446 21.1739C14.5635 21.1651 14.5805 21.1525 14.5947 21.1368C14.6089 21.1212 14.6199 21.1028 14.6272 21.0827C14.6345 21.0627 14.6379 21.0413 14.6372 21.0199C14.6371 20.9983 14.6328 20.9769 14.6244 20.9571C14.6161 20.9373 14.6039 20.9195 14.5886 20.9047C14.5733 20.8899 14.5552 20.8786 14.5355 20.8713C14.5157 20.864 14.4948 20.861 14.4739 20.8624C14.153 20.8823 13.8397 20.9711 13.554 21.1231L13.7883 20.5022C13.8035 20.4619 13.8026 20.417 13.7857 20.3774C13.7688 20.3377 13.7373 20.3067 13.6982 20.291C13.6591 20.2753 13.6156 20.2762 13.5772 20.2937C13.5388 20.3111 13.5086 20.3435 13.4934 20.3838L13.1149 21.3867C13.0207 21.4496 12.9248 21.5094 12.8354 21.5797C12.8679 21.2419 12.9461 20.9105 13.0679 20.5951C13.0835 20.555 13.0831 20.5101 13.0668 20.4703C13.0504 20.4306 13.0193 20.3991 12.9804 20.3829C12.9416 20.3668 12.8981 20.3672 12.8595 20.3841C12.8209 20.401 12.7904 20.433 12.7747 20.4731C12.6016 20.9194 12.5089 21.3946 12.5011 21.8753C12.3951 21.9767 12.2962 22.085 12.1995 22.1963C12.1612 21.866 12.1704 21.5318 12.2269 21.2043C12.2308 21.1832 12.2306 21.1616 12.2263 21.1407C12.222 21.1197 12.2138 21.0998 12.2021 21.0821C12.1904 21.0644 12.1754 21.0493 12.158 21.0376C12.1405 21.0259 12.1211 21.0179 12.1006 21.014C12.0802 21.0097 12.0592 21.0097 12.0387 21.014C12.0183 21.0183 11.9989 21.0268 11.9817 21.0389C11.9645 21.051 11.9499 21.0666 11.9386 21.0847C11.9273 21.1028 11.9197 21.123 11.9161 21.1442C11.8426 21.5488 11.8352 21.9632 11.8945 22.3703C11.9025 22.421 11.9187 22.4698 11.9424 22.5149C11.8505 22.6402 11.7607 22.7669 11.6804 22.9005C11.6141 22.5836 11.5793 22.2606 11.5767 21.9364C11.5768 21.915 11.5728 21.8938 11.5649 21.8739C11.557 21.8541 11.5455 21.8361 11.5308 21.8209C11.5162 21.8057 11.4987 21.7937 11.4796 21.7854C11.4604 21.7772 11.4398 21.773 11.4191 21.773C11.3983 21.7729 11.3773 21.7771 11.3582 21.7853C11.339 21.7934 11.3216 21.8054 11.3069 21.8205C11.2923 21.8356 11.2806 21.8535 11.2727 21.8732C11.2647 21.893 11.2606 21.9141 11.2606 21.9355C11.2597 22.3828 11.3159 22.8283 11.4279 23.2605C11.4355 23.2798 11.4469 23.2974 11.4613 23.312C11.3779 23.4856 11.3044 23.6641 11.2414 23.8467L10.7405 22.8102C10.7313 22.7909 10.7185 22.7737 10.7028 22.7595C10.6871 22.7454 10.6688 22.7346 10.6491 22.7277C10.6294 22.7209 10.6085 22.7181 10.5877 22.7196C10.5669 22.7211 10.5466 22.7268 10.528 22.7364C10.5093 22.7459 10.4927 22.7592 10.479 22.7755C10.4654 22.7917 10.4549 22.8105 10.4484 22.8309C10.4418 22.8513 10.4392 22.8729 10.4407 22.8943C10.4422 22.9157 10.4478 22.9367 10.4571 22.9559L11.0085 24.0959C11.0363 24.1515 11.0782 24.1983 11.1296 24.2314C11.0599 24.4937 11.0132 24.762 10.9899 25.033C10.9076 25.0102 10.8236 24.9945 10.7388 24.9861C10.3994 24.9665 10.0626 25.0567 9.77538 25.2442C9.75374 25.0918 9.6772 24.9535 9.56103 24.8567C9.46754 24.7915 9.35989 24.751 9.2476 24.7388C9.10621 24.7134 8.96106 24.7213 8.82307 24.762C8.83571 24.1565 8.89718 23.5531 9.00685 22.958C9.52217 22.8431 9.973 22.5237 10.262 22.0689C10.2733 22.051 10.2811 22.0309 10.2849 22.0099C10.2887 21.9889 10.2884 21.9673 10.2841 21.9463C10.2798 21.9254 10.2716 21.9056 10.2598 21.8879C10.2481 21.8703 10.2331 21.8552 10.2157 21.8435C10.1983 21.8319 10.1789 21.8239 10.1585 21.82C10.1381 21.8161 10.1171 21.8163 10.0968 21.8208C10.0765 21.8252 10.0573 21.8337 10.0402 21.8458C10.0231 21.8579 10.0085 21.8734 9.99718 21.8914C9.77712 22.2288 9.45107 22.4778 9.07389 22.5964C9.13423 22.3319 9.20479 22.0757 9.28556 21.828C9.36483 21.5856 9.459 21.3535 9.55871 21.1261L9.55926 21.126C10.1934 20.8644 10.7389 20.4161 11.1277 19.837C11.1513 19.8014 11.1602 19.7576 11.1525 19.7152C11.1448 19.6728 11.1212 19.6353 11.0867 19.6108C11.0523 19.5864 11.0099 19.577 10.9687 19.5847C10.9276 19.5925 10.8911 19.6167 10.8673 19.6521C10.5899 20.0632 10.2242 20.4026 9.79887 20.6441C10.1053 20.0487 10.502 19.5077 10.9741 19.0416C11.0047 19.0122 11.0228 18.9713 11.0243 18.9281C11.0258 18.8849 11.0106 18.8429 10.982 18.8112C10.9679 18.7956 10.9509 18.7829 10.932 18.774C10.9131 18.7652 10.8927 18.7602 10.872 18.7594C10.8301 18.7579 10.7893 18.7736 10.7587 18.803C9.95291 19.6019 9.34897 20.592 8.99955 21.6869C8.81137 20.9572 8.83902 20.1862 9.07895 19.4728C9.08592 19.4526 9.08894 19.4311 9.08784 19.4097C9.08674 19.3882 9.08154 19.3672 9.07254 19.3478C9.06354 19.3285 9.05092 19.3111 9.0354 19.2968C9.01988 19.2825 9.00177 19.2715 8.98211 19.2644C8.96245 19.2573 8.94162 19.2543 8.92083 19.2555C8.90004 19.2568 8.8797 19.2623 8.86097 19.2716C8.84223 19.281 8.82549 19.2941 8.81168 19.3102C8.79788 19.3263 8.78729 19.345 8.78053 19.3654C8.48185 20.2516 8.48636 21.2167 8.79333 22.0999C8.80551 22.1338 8.82854 22.1624 8.85861 22.1809C8.62208 23.0885 8.50178 24.0241 8.50077 24.9639C8.22201 24.8552 7.95094 24.7573 7.68755 24.6703C7.68978 24.6638 7.69621 24.6605 7.69768 24.6537C7.96399 23.7652 8.01177 22.8223 7.83673 21.91C7.8278 21.8721 7.80538 21.8389 7.77391 21.8172C7.74244 21.7954 7.70421 21.7866 7.66676 21.7926C7.62955 21.7969 7.59502 21.8147 7.56932 21.8428C7.54362 21.8708 7.5284 21.9074 7.52638 21.946C7.48802 22.6667 7.28681 23.3682 6.93881 23.9944C6.90099 24.0686 6.85264 24.1366 6.79534 24.1961C6.61181 23.4117 6.71704 22.5849 7.09067 21.8759C7.37358 21.2006 7.70224 20.5467 8.07421 19.919C8.09388 19.8858 8.10144 19.8465 8.09552 19.8081C8.0896 19.7697 8.0706 19.7347 8.04192 19.7095C8.01325 19.6843 7.97679 19.6704 7.93909 19.6704C7.90139 19.6704 7.86494 19.6843 7.83627 19.7095C7.15849 20.3284 6.62658 21.0986 6.28109 21.9615C6.33706 21.388 6.33144 20.8099 6.26432 20.2377C6.22884 19.7381 6.05578 19.2593 5.76548 18.8577C5.74391 18.8305 5.71442 18.8113 5.68139 18.8028C5.64837 18.7943 5.61357 18.7971 5.58218 18.8106C5.55079 18.8242 5.52448 18.8478 5.50716 18.878C5.48984 18.9082 5.48243 18.9434 5.48605 18.9783C5.66737 20.7156 5.57707 22.4716 5.21861 24.1794C5.19927 24.179 5.17717 24.1756 5.15804 24.1756C5.11612 24.1756 5.07593 24.1928 5.04629 24.2233C5.01665 24.2539 5 24.2954 5 24.3386C5 24.3818 5.01665 24.4233 5.04629 24.4539C5.07593 24.4844 5.11612 24.5016 5.15804 24.5016C7.37796 24.5016 12.0138 26.4734 17.403 30.7462C17.4063 30.7541 17.4103 30.7616 17.4148 30.7688C17.4339 30.7894 17.4581 30.8042 17.4848 30.8116C18.043 31.256 18.6073 31.7202 19.1797 32.2142C19.1918 32.2291 19.2065 32.2416 19.2231 32.251C19.2501 32.2744 19.2766 32.2956 19.3037 32.3191C19.3148 32.3288 19.3293 32.3275 19.3419 32.3335C19.3456 32.3558 19.3474 32.3785 19.3514 32.4006C19.3542 32.4169 19.367 32.4265 19.374 32.4405C19.3376 32.4363 19.3014 32.4308 19.2649 32.4284C19.0592 32.4043 18.8514 32.4497 18.6729 32.5577C18.5693 32.6237 18.4898 32.7231 18.4467 32.8405C18.4036 32.958 18.3993 33.0868 18.4345 33.207C18.4682 33.2937 18.5194 33.372 18.5846 33.4369C18.7996 33.6714 19.0717 33.842 19.3726 33.9309C19.476 33.9611 19.5829 33.9768 19.6904 33.9773C19.8063 33.9854 19.9222 33.9624 20.027 33.9107C20.1318 33.8591 20.2219 33.7804 20.2886 33.6823C20.3178 33.6312 20.34 33.576 20.3544 33.5185C20.5315 33.7946 20.8045 33.9901 21.1171 34.0648C21.2284 34.0886 21.3417 34.1003 21.4553 34.0998C21.4755 34.0998 21.4952 34.0959 21.5154 34.0954C21.4768 34.1324 21.444 34.1754 21.4182 34.2227C21.3847 34.2914 21.3658 34.3667 21.3629 34.4435C21.36 34.5203 21.3732 34.5969 21.4014 34.668C21.437 34.7609 21.4908 34.8453 21.5593 34.9158C21.6279 34.9863 21.7099 35.0414 21.8001 35.0778C21.9029 35.1163 22.0116 35.1354 22.121 35.1343C22.3025 35.1286 22.4821 35.0941 22.6534 35.0318C22.7883 34.9995 22.9068 34.9166 22.9858 34.7992C22.9951 34.7786 23.0025 34.7572 23.0079 34.7352C23.0568 34.7778 23.1119 34.8121 23.1712 34.837C23.2448 34.8663 23.3232 34.8811 23.4021 34.8807C23.4416 34.8793 23.481 34.8747 23.5198 34.8667C23.49 34.9848 23.491 35.109 23.5225 35.2266C23.5541 35.3443 23.6152 35.4512 23.6996 35.5368C23.7681 35.6162 23.8515 35.6805 23.9448 35.7258C24.038 35.7711 24.1392 35.7964 24.2421 35.8004C24.255 35.8004 24.2673 35.7999 24.2801 35.7995C24.3717 35.7899 24.4599 35.7586 24.5379 35.708C24.6158 35.6575 24.6814 35.589 24.7294 35.508C24.7946 35.6021 24.8876 35.6719 24.9944 35.7071C25.071 35.7308 25.1506 35.7423 25.2306 35.7412C25.2924 35.7412 25.3533 35.7358 25.4129 35.7298C25.8102 35.6875 26.0583 35.5195 26.1108 35.2572C26.1266 35.1731 26.1224 35.0864 26.0985 35.0043C26.1847 35.0544 26.2786 35.0889 26.3761 35.1061C26.5484 35.1384 26.7232 35.1548 26.8983 35.1548C26.908 35.1548 26.9178 35.1548 26.9275 35.1543C26.9514 35.1541 26.9777 35.1518 27.0031 35.1504C26.9703 35.1853 26.9409 35.2236 26.9155 35.2645C26.8706 35.3454 26.8485 35.4377 26.8515 35.5309C26.8657 35.6386 26.9122 35.7391 26.9843 35.8185C27.0565 35.8978 27.1508 35.9519 27.2541 35.9734C27.3155 35.9904 27.3787 35.9989 27.4422 35.9989C27.5405 36.0048 27.6387 35.9866 27.7288 35.9456C27.8189 35.9046 27.8982 35.8421 27.9602 35.7632C28.0223 35.6843 28.0652 35.5913 28.0854 35.4919C28.1057 35.3925 28.1027 35.2896 28.0768 35.1917C28.1035 35.1938 28.128 35.1994 28.156 35.1994C28.1989 35.1992 28.2418 35.1966 28.2845 35.1917C28.3938 35.1824 28.5005 35.1523 28.5992 35.1029C28.6246 35.085 28.6486 35.0649 28.6708 35.043C28.6584 35.1746 28.689 35.3068 28.7577 35.4184C28.8081 35.4899 28.8746 35.5477 28.9514 35.5869C29.0282 35.6262 29.113 35.6457 29.1987 35.6438C29.3049 35.6444 29.409 35.6132 29.4984 35.5541C29.6045 35.4768 29.6864 35.3695 29.7344 35.2451C29.7824 35.1207 29.7942 34.9846 29.7686 34.8534C29.7593 34.8076 29.7462 34.7628 29.7293 34.7195C29.7996 34.7398 29.8722 34.7503 29.9452 34.7509C30.1086 34.7534 30.2678 34.698 30.3963 34.5938C30.5249 34.4808 30.6121 34.3259 30.6437 34.1547C30.6957 34.2063 30.7553 34.2492 30.8201 34.282C30.9228 34.3294 31.0342 34.3535 31.1468 34.3526C31.2477 34.3522 31.348 34.3347 31.4434 34.3007C31.5823 34.2509 31.709 34.1707 31.8149 34.0655C31.9208 33.9604 32.0032 33.8327 32.0566 33.6915C32.0984 33.5739 32.1186 33.4494 32.1163 33.3243C32.1569 33.351 32.2001 33.3735 32.2451 33.3914C32.3541 33.4308 32.469 33.4501 32.5846 33.4483C32.6602 33.4476 32.7357 33.4419 32.8106 33.431C33.0968 33.4112 33.3668 33.2867 33.5721 33.08C33.6203 33.0224 33.6604 32.9582 33.6913 32.8892C33.7737 32.9555 33.8746 32.9929 33.9791 32.9957C33.9892 32.9957 33.9998 32.9953 34.01 32.9948C34.1204 32.9797 34.2236 32.9301 34.3058 32.8526C34.388 32.7751 34.4451 32.6734 34.4695 32.5614C34.4964 32.4348 34.5055 32.3049 34.4965 32.1757C34.4951 32.1206 34.4938 32.0623 34.4951 32.0004C34.4957 31.979 34.4922 31.9577 34.4848 31.9377C34.4773 31.9177 34.4662 31.8994 34.4519 31.8839C34.3418 31.7483 34.2045 31.6389 34.0496 31.5631C34.1602 31.4888 34.2582 31.3962 34.3396 31.289C34.3419 31.2867 34.3451 31.2858 34.3473 31.2833C36.622 28.6699 43.8604 25.1331 45.7074 25.1331C45.7469 25.1328 45.7864 25.1348 45.8257 25.139C45.8675 25.1433 45.9093 25.1304 45.9418 25.103C45.9743 25.0756 45.995 25.0359 45.9992 24.9928C46.0034 24.9497 45.9909 24.9067 45.9643 24.8731C45.9377 24.8395 45.8993 24.8183 45.8575 24.8139ZM37.6585 18.9633C37.6435 18.9273 37.6362 18.8882 37.6373 18.849C37.6383 18.8098 37.6477 18.7712 37.6647 18.7361C37.6719 18.7222 37.6819 18.7101 37.6941 18.7007C37.7064 18.6912 37.7204 18.6847 37.7354 18.6815C37.7412 18.6807 37.7471 18.6804 37.753 18.6805C37.8528 18.6805 37.9627 18.7912 38.0576 18.9018C38.069 18.9151 38.0824 18.9263 38.0973 18.935C38.1283 18.9531 38.1626 18.9641 38.198 18.9675C38.2333 18.9709 38.269 18.9665 38.3026 18.9546C38.3444 18.9397 38.3827 18.9161 38.4152 18.8852C38.4477 18.8544 38.4737 18.8169 38.4916 18.7752C38.5155 18.7132 38.5292 18.6475 38.5322 18.5808C38.5339 18.5608 38.5357 18.5403 38.5388 18.5207L38.5415 18.5089C38.5538 18.5247 38.5647 18.5416 38.5741 18.5594C38.7572 18.9048 38.8373 19.2982 38.8046 19.6904C38.8014 19.7862 38.7766 19.8799 38.7322 19.964C38.7182 19.991 38.6974 20.0134 38.6719 20.029C38.6465 20.0446 38.6174 20.0526 38.5878 20.0524C38.5499 20.0421 38.514 20.025 38.4819 20.0018C38.1035 19.7592 37.8139 19.3939 37.6585 18.9633ZM20.6629 25.384C20.8522 25.5848 21.0084 25.8163 21.1251 26.0692C21.0625 26.0749 20.9998 26.0614 20.9446 26.0305C20.8273 25.9519 20.7298 25.8458 20.6598 25.7209C20.6433 25.6962 20.6207 25.6767 20.5942 25.6642C20.5678 25.6518 20.5386 25.647 20.5097 25.6503C20.4808 25.6539 20.4534 25.6657 20.4306 25.6843C20.4078 25.703 20.3904 25.7278 20.3804 25.756C20.3276 25.9032 20.2389 26.0339 20.123 26.1357L20.1173 26.1407L19.9871 25.6144C20.189 25.4781 20.422 25.3987 20.6629 25.384ZM43.611 21.4055C43.6524 21.0249 43.7558 20.6542 43.9169 20.3092C43.9736 20.5299 43.9928 20.7591 43.9739 20.9867C43.9327 22.2176 43.815 23.4446 43.6216 24.6601C43.4308 23.5845 43.4272 22.4824 43.611 21.4055ZM42.1587 16.7419C42.5318 18.0537 42.7254 19.4129 42.7339 20.78C42.7789 21.6164 42.8252 22.4723 42.9449 23.3374C42.075 21.2621 41.8021 18.9727 42.1587 16.7419ZM40.5231 21.8636C41.7837 22.5403 42.7511 23.6815 43.2331 25.0603C42.0379 24.3009 41.0932 23.1866 40.5231 21.8636ZM37.8546 22.8288C37.9808 22.9768 38.0915 23.1381 38.1848 23.3101C38.5077 23.8901 38.7065 24.5346 38.7678 25.2004C38.8291 25.8662 38.7514 26.5378 38.5401 27.1701C38.619 25.6889 38.3851 24.2077 37.8546 22.8288ZM32.785 31.2032C32.8043 31.0866 32.8466 30.9754 32.9094 30.8764C32.9722 30.7775 33.0542 30.693 33.1501 30.6282C33.2639 30.5839 33.3843 30.5603 33.5059 30.5585C33.6393 30.541 33.7744 30.5435 33.9072 30.5658C33.9632 30.5699 34.0169 30.5904 34.0621 30.6249C34.1072 30.6594 34.1419 30.7064 34.1621 30.7604C34.1823 30.8145 34.1871 30.8734 34.1761 30.9302C34.165 30.987 34.1385 31.0394 34.0996 31.0812C34.0054 31.2035 33.8875 31.3043 33.7535 31.3771C33.4501 31.5727 33.1222 31.7245 32.7788 31.8283C32.7715 31.8297 32.7641 31.8303 32.7568 31.8302C32.7422 31.8302 32.7263 31.8297 32.7064 31.8288C32.707 31.6177 32.7334 31.4075 32.785 31.2032ZM33.361 32.013C33.3384 32.0031 33.3134 31.9931 33.2886 31.9829C33.3148 31.9717 33.3407 31.9655 33.367 31.9535C33.3651 31.9737 33.3613 31.9933 33.361 32.013ZM30.678 31.8188C30.6959 31.7332 30.7319 31.6527 30.7834 31.583C30.8349 31.5134 30.9006 31.4563 30.976 31.4158C31.1341 31.3662 31.3031 31.3671 31.4607 31.4186C31.6726 31.4521 31.869 31.553 32.0226 31.7072C32.0621 31.749 32.0885 31.8019 32.0986 31.8593C32.1096 31.9968 31.9348 32.1252 31.8589 32.1739C31.6838 32.3023 31.4809 32.3844 31.2679 32.413C31.055 32.4415 30.8384 32.4157 30.6374 32.3378C30.6266 32.1637 30.6402 31.9889 30.678 31.8188ZM29.0939 34.2256C29.0257 34.2863 28.9633 34.3536 28.9075 34.4265C28.9045 34.3846 28.897 34.3432 28.8853 34.3029C28.848 34.2042 28.784 34.1185 28.701 34.0561C28.8407 34.0119 28.9761 33.9545 29.1055 33.8846C29.0753 33.9334 29.0575 33.9893 29.0535 34.047C29.0508 34.1093 29.0648 34.171 29.0939 34.2256ZM27.1879 33.4518C27.1976 33.4706 27.2084 33.4909 27.2177 33.5091C27.1918 33.5062 27.1657 33.5049 27.1396 33.5052C27.1567 33.4877 27.1731 33.4701 27.1879 33.4518ZM29.6115 33.4617L29.6246 33.471C29.6162 33.4739 29.6082 33.4777 29.6 33.4809C29.6033 33.4737 29.6087 33.4694 29.6115 33.4617ZM30.3861 33.5667C30.3863 33.5719 30.3859 33.5772 30.3862 33.5824C30.3819 33.5792 30.3781 33.5756 30.3738 33.5725L30.3861 33.5667ZM30.7203 32.8348C30.7071 32.7845 30.69 32.7355 30.6693 32.688C30.7361 32.7072 30.8042 32.7214 30.8731 32.7304C30.8191 32.7602 30.768 32.7952 30.7203 32.8348ZM29.728 32.6984C29.756 32.6441 29.796 32.5974 29.8449 32.5622C29.8938 32.5269 29.9501 32.5042 30.0092 32.4958C30.1549 32.4913 30.2992 32.6429 30.3716 32.7963C30.4249 32.8928 30.442 33.006 30.4198 33.1146C30.3873 33.1815 30.3349 33.236 30.2702 33.27C30.2056 33.304 30.132 33.3158 30.0604 33.3035C29.8886 33.2667 29.7305 33.18 29.6049 33.0536C29.6278 32.9293 29.6694 32.8095 29.728 32.6984ZM28.2496 32.3815C28.371 32.3507 28.4978 32.3499 28.6195 32.3793C28.7878 32.4371 28.9317 32.5527 29.0274 32.7066C29.1355 32.8805 29.2239 33.0666 29.291 33.2612C29.3031 33.2877 29.3119 33.3157 29.317 33.3445C29.3053 33.3594 29.2916 33.3726 29.2764 33.3837C28.874 33.7187 28.3627 33.8825 27.847 33.8417C27.811 33.8419 27.7753 33.8342 27.7424 33.8189C27.7154 33.7899 27.6938 33.7559 27.6788 33.7188C27.595 33.548 27.5111 33.3768 27.3981 33.1642C27.4608 32.9681 27.5725 32.7924 27.722 32.655C27.8715 32.5176 28.0535 32.4233 28.2496 32.3815ZM26.1753 32.9898C26.1744 32.9402 26.1731 32.8901 26.1744 32.8409C26.1695 32.7337 26.2044 32.6285 26.2719 32.5468C26.3159 32.5107 26.3711 32.4923 26.4273 32.4949C26.5403 32.5032 26.6504 32.5362 26.75 32.5919C26.8214 32.6238 26.8841 32.6732 26.9328 32.7358C26.9618 32.7927 26.9817 32.854 26.9919 32.9174C27.0088 32.9772 27.0167 33.0392 27.0153 33.1014C27.0016 33.227 26.8674 33.329 26.7888 33.3787C26.6741 33.4594 26.5379 33.5011 26.399 33.4979C26.3156 33.4932 26.2367 33.4572 26.177 33.3969C26.1685 33.3858 26.1627 33.3728 26.1599 33.359C26.1572 33.3451 26.1576 33.3308 26.1611 33.3172C26.1769 33.2089 26.1816 33.0992 26.1753 32.9898ZM25.0809 33.0235C25.3312 33.056 25.5612 33.1818 25.7276 33.3773C25.7553 33.4106 25.7759 33.4497 25.7878 33.4918C25.7998 33.534 25.8029 33.5783 25.7969 33.6218C25.7629 33.859 25.6433 34.0742 25.4619 34.2242C25.3299 34.321 25.1758 34.3809 25.0146 34.3981C24.8535 34.4152 24.6908 34.3891 24.5424 34.3221C24.4825 34.3014 24.4273 34.2686 24.3799 34.2256C24.3325 34.1826 24.294 34.1302 24.2665 34.0716C24.2458 33.958 24.2545 33.8407 24.2916 33.7315C24.3209 33.5748 24.3783 33.425 24.4607 33.2899C24.526 33.204 24.6099 33.1349 24.7056 33.0881C24.8012 33.0413 24.9062 33.0181 25.012 33.0204C25.035 33.0203 25.058 33.0212 25.0809 33.0235ZM24.7219 34.7079C24.7905 34.7206 24.8599 34.7277 24.9295 34.7291C24.9518 34.7291 24.9734 34.725 24.9955 34.7238C24.9264 34.7674 24.8631 34.8202 24.8075 34.8809C24.7829 34.8213 24.7543 34.7635 24.7219 34.7079ZM23.1443 33.3598L23.152 33.3632L23.1392 33.3719C23.1404 33.3676 23.1432 33.3641 23.1443 33.3598ZM24.0452 33.4444C24.0422 33.4414 24.0381 33.4399 24.035 33.4369L24.0483 33.4335L24.0452 33.4444ZM23.4653 32.5514C23.5317 32.4785 23.6133 32.422 23.7038 32.3861C23.7944 32.3502 23.8917 32.3359 23.9884 32.3442C24.0774 32.3553 24.1611 32.3935 24.229 32.4539C24.2969 32.5143 24.3457 32.5942 24.3693 32.6834C24.38 32.7263 24.3796 32.7714 24.368 32.8141C24.3432 32.8747 24.3026 32.9271 24.2506 32.9652C24.1069 33.0807 23.933 33.1493 23.7513 33.1623C23.5695 33.1753 23.3882 33.132 23.2304 33.0381C23.2626 32.8563 23.3441 32.6875 23.4653 32.5514ZM20.1571 31.7323C20.255 31.6869 20.3606 31.662 20.4678 31.659C20.5078 31.6587 20.5477 31.6634 20.5866 31.6731C20.7959 31.7547 20.9687 31.9129 21.0722 32.1175C20.7628 32.3292 20.4131 32.47 20.0465 32.5304C20.0056 32.5191 19.9639 32.5112 19.9218 32.507C19.8995 32.4938 19.8805 32.4755 19.8661 32.4535C19.8178 32.3785 19.7922 32.2904 19.7926 32.2004C19.793 32.1104 19.8194 32.0226 19.8684 31.9481C19.9437 31.8503 20.0435 31.7757 20.1571 31.7323ZM19.8564 29.1446C19.9988 29.9759 19.9017 30.832 19.5773 31.607C19.5226 30.7754 19.6173 29.9407 19.8564 29.1446ZM18.7109 29.8186C18.7758 30.1172 18.8184 30.4204 18.8385 30.7256C18.8446 30.7925 18.8508 30.8595 18.8574 30.9268C18.6961 30.5827 18.6448 30.1947 18.7109 29.8186ZM18.7227 31.4048C18.4282 31.1589 18.1329 30.9181 17.8367 30.6821C18.0055 30.5098 18.1355 30.3013 18.2174 30.0714L18.2513 29.9949C18.3075 29.8686 18.3717 29.7468 18.4326 29.6231C18.3148 30.0253 18.301 30.5258 18.7227 31.4048ZM18.9334 27.9783C19.019 27.8867 19.1129 27.8036 19.2137 27.7302C18.72 28.3883 18.3005 29.1022 17.9635 29.8582L17.929 29.937C17.9003 30.0021 17.8721 30.0663 17.843 30.1269C18.0345 29.331 18.4085 28.5942 18.9334 27.9783ZM17.191 28.3439C17.2385 27.313 17.3492 26.2862 17.5225 25.2697C17.6433 25.7344 17.7155 26.2111 17.7379 26.6916C17.734 27.3274 17.6663 27.9611 17.5358 28.5825C17.4664 28.9777 17.3958 29.3825 17.357 29.7913C17.2096 29.3249 17.1532 28.833 17.191 28.3439ZM13.7547 27.7019C13.7218 26.8029 13.8958 25.9085 14.2624 25.0921C14.1534 25.6736 14.0984 26.2646 14.0982 26.8569C14.0786 27.2572 14.1213 27.6582 14.2246 28.0446C14.0655 27.9396 13.9074 27.8374 13.7494 27.7358C13.7524 27.7248 13.7542 27.7134 13.7547 27.7019ZM12.6154 23.8678C12.7247 23.9995 12.8074 24.1523 12.8588 24.3173C12.9102 24.4824 12.9292 24.6563 12.9147 24.829C12.8977 25.4251 12.7361 26.0073 12.4445 26.5222C12.4244 25.634 12.4816 24.7456 12.6154 23.8678ZM11.6181 25.8047C11.7923 26.0536 11.9066 26.3416 11.9517 26.645C11.2411 26.2399 10.5505 25.8773 9.88825 25.5641C10.1289 25.3864 10.4206 25.2975 10.7163 25.3116C10.8913 25.3258 11.0616 25.3769 11.2168 25.4617C11.3719 25.5465 11.5085 25.6633 11.6181 25.8047ZM9.20079 25.0612C9.26163 25.067 9.32044 25.0868 9.37295 25.119C9.43797 25.1875 9.47587 25.2786 9.47923 25.3744C9.26841 25.2795 9.05936 25.1874 8.85525 25.103C8.96348 25.0526 9.08419 25.038 9.20079 25.0612ZM7.2134 24.1574C7.38276 23.8527 7.5201 23.5301 7.62306 23.1953C7.57661 23.6603 7.4988 24.1213 7.3902 24.5751C7.25067 24.5325 7.11371 24.4933 6.97932 24.4574C7.07372 24.3723 7.15294 24.2707 7.2134 24.1574ZM7.09818 21.0777C6.99356 21.2985 6.89423 21.5215 6.8002 21.7466C6.38469 22.5418 6.28326 23.4718 6.5171 24.3424C6.30943 24.2972 6.11149 24.2643 5.91869 24.2375L5.92085 24.2325C6.12451 23.116 6.52345 22.047 7.09818 21.0777ZM5.87008 19.8307C5.90535 19.9786 5.93232 20.1285 5.95087 20.2796C6.04318 21.5855 5.92852 22.8982 5.61138 24.1661C5.60993 24.1785 5.60992 24.191 5.61136 24.2034C5.58559 24.2011 5.56142 24.2007 5.53598 24.1988C5.83358 22.7643 5.94592 21.2955 5.87008 19.8307ZM20.0219 33.5075C19.9231 33.6673 19.6608 33.676 19.4595 33.6173C19.2131 33.544 18.9901 33.4041 18.8137 33.212C18.7792 33.1785 18.7512 33.1385 18.7311 33.0941C18.7211 33.0434 18.7267 32.9906 18.7473 32.9434C18.7679 32.8962 18.8024 32.8568 18.8459 32.8309C18.9425 32.773 19.0535 32.7455 19.1651 32.7517C19.1902 32.7517 19.2167 32.7526 19.2445 32.7545C19.3139 32.759 19.3827 32.7681 19.4516 32.7772C19.5553 32.793 19.6598 32.8024 19.7646 32.8054C19.7785 32.8057 19.7875 32.8099 19.8005 32.8108C19.8488 32.8327 19.9002 32.8466 19.9527 32.852C19.9754 32.8617 19.9963 32.875 20.0149 32.8915C20.0486 32.9422 20.0722 32.9993 20.0842 33.0595C20.0963 33.1197 20.0966 33.1818 20.0851 33.2421C20.0841 33.3344 20.0625 33.4252 20.0219 33.5075ZM21.1825 33.7452C20.9875 33.6986 20.8121 33.5889 20.6819 33.4321C20.5517 33.2753 20.4736 33.0796 20.459 32.8737C20.6481 32.7875 20.8307 32.6866 21.005 32.5719C21.1194 32.5008 21.2337 32.4294 21.352 32.367C21.49 32.28 21.6447 32.2249 21.8053 32.2055C21.966 32.1861 22.1288 32.2028 22.2826 32.2545C22.499 32.384 22.6654 32.5867 22.7536 32.8282C22.8007 32.9049 22.8302 32.9916 22.8398 33.0818C22.8494 33.172 22.839 33.2632 22.8092 33.3486C22.7139 33.456 22.5876 33.5288 22.449 33.5562C22.0495 33.7302 21.6134 33.7952 21.1825 33.7452ZM22.5457 33.8668C22.6381 33.8386 22.7281 33.8022 22.8144 33.7581C22.8065 33.7762 22.7944 33.7916 22.7876 33.8103C22.7675 33.868 22.7538 33.9279 22.7468 33.9888C22.6346 33.9546 22.52 33.9292 22.4041 33.9127C22.4516 33.8972 22.5005 33.8818 22.5457 33.8668ZM22.5563 34.7214C22.3522 34.81 22.1256 34.8277 21.9109 34.7719C21.8626 34.752 21.8187 34.7222 21.7819 34.6844C21.7451 34.6465 21.7162 34.6013 21.6968 34.5515C21.6849 34.5235 21.6789 34.4932 21.6792 34.4626C21.6796 34.4319 21.6861 34.4018 21.6985 34.374C21.7709 34.2324 21.9877 34.2119 22.1069 34.2119C22.1192 34.2119 22.1307 34.2123 22.1404 34.2123C22.3047 34.2174 22.4678 34.2432 22.626 34.2893C22.6366 34.317 22.6472 34.3448 22.6578 34.3717C22.7002 34.4819 22.7404 34.5857 22.7125 34.6348C22.6699 34.679 22.6155 34.7092 22.5563 34.7214ZM23.286 34.5329C23.1867 34.4741 23.1115 34.3802 23.0742 34.2686C23.037 34.157 23.0402 34.0353 23.0834 33.9259C23.1145 33.8377 23.1668 33.759 23.2352 33.697C23.3036 33.635 23.386 33.5918 23.4749 33.5713C23.4971 33.5672 23.5195 33.5653 23.542 33.5653C23.6144 33.5642 23.6858 33.5834 23.7484 33.621C23.811 33.6585 23.8625 33.7129 23.8974 33.7784C23.976 33.9487 23.923 34.1531 23.7398 34.3858C23.6875 34.4549 23.6161 34.5059 23.5351 34.5322C23.454 34.5585 23.3672 34.5587 23.286 34.5329ZM24.2598 35.4735C24.1968 35.472 24.1348 35.4568 24.0778 35.429C24.0208 35.4012 23.9702 35.3612 23.9292 35.3119C23.88 35.2673 23.8438 35.2095 23.8246 35.145C23.8053 35.0804 23.8038 35.0117 23.8201 34.9463C23.8466 34.8978 23.8802 34.8538 23.9199 34.8161C23.9668 34.7564 24.0255 34.7078 24.0921 34.6736C24.1113 34.6664 24.1316 34.6629 24.1521 34.6631C24.2423 34.67 24.3263 34.7133 24.3856 34.7837C24.4674 34.89 24.5293 35.011 24.5679 35.1407C24.5083 35.2805 24.4028 35.4644 24.2598 35.4735ZM25.3806 35.4048C25.2842 35.4217 25.1854 35.4186 25.0902 35.3957C25.0607 35.3885 25.0335 35.3735 25.0112 35.3523C24.9889 35.3311 24.9723 35.3043 24.963 35.2746C24.9638 35.242 24.9709 35.2099 24.9839 35.1803C24.997 35.1506 25.0157 35.124 25.039 35.102C25.1032 35.031 25.181 34.9745 25.2675 34.9361C25.3539 34.8977 25.4472 34.8782 25.5413 34.8789C25.6028 34.8786 25.6639 34.8877 25.7228 34.9058C25.7737 34.9916 25.8007 35.0902 25.8009 35.1908C25.7696 35.3474 25.4963 35.3925 25.3806 35.4048ZM25.8917 34.7502C25.8928 34.7538 25.8926 34.7582 25.8937 34.7618L25.8389 34.7751L25.8917 34.7502ZM25.8892 34.4769C25.8782 34.5231 25.8727 34.5705 25.8727 34.618C25.7656 34.5778 25.6522 34.5584 25.5382 34.5607C25.5798 34.5368 25.6198 34.51 25.6579 34.4805C25.8818 34.2909 26.0358 34.0276 26.094 33.7349C26.1801 33.7828 26.2744 33.8127 26.3717 33.8231C26.3804 33.8238 26.3893 33.8238 26.3981 33.8242C26.1586 33.9724 25.9782 34.2038 25.8892 34.4769ZM26.9239 34.8284C26.7593 34.8314 26.5948 34.8169 26.433 34.7851C26.2971 34.7592 26.2119 34.715 26.1925 34.6599C26.1845 34.6258 26.1857 34.59 26.196 34.5566C26.2863 34.3344 26.4475 34.1508 26.6529 34.0361C26.7718 33.9376 26.9101 33.8669 27.0581 33.829C27.0755 33.8262 27.0931 33.8248 27.1107 33.8249C27.156 33.8212 27.2016 33.8301 27.2425 33.8506C27.2834 33.8712 27.3182 33.9027 27.3433 33.9419C27.4156 34.0622 27.4494 34.2028 27.44 34.344C27.4306 34.4852 27.3784 34.6197 27.2908 34.7287C27.1845 34.8072 27.0539 34.8427 26.9239 34.8284ZM27.7313 35.535C27.6847 35.594 27.622 35.6372 27.5514 35.6591C27.4807 35.681 27.4053 35.6806 27.3349 35.6579C27.2554 35.6365 27.1711 35.576 27.1676 35.5122C27.1687 35.4786 27.1783 35.4458 27.1954 35.4171C27.2371 35.3421 27.2972 35.2798 27.3696 35.2365C27.4421 35.1932 27.5244 35.1703 27.6081 35.1703C27.6479 35.1702 27.6874 35.1759 27.7256 35.1872C27.7459 35.1931 27.7591 35.2209 27.7662 35.2427C27.7801 35.2913 27.7842 35.3423 27.7782 35.3926C27.7722 35.4429 27.7563 35.4914 27.7313 35.535ZM28.4513 34.8143C28.388 34.8448 28.3198 34.8629 28.25 34.8675C28.1017 34.8844 27.9159 34.8616 27.8492 34.7492C27.831 34.7105 27.821 34.6683 27.82 34.6253C27.8189 34.5824 27.8268 34.5397 27.843 34.5001C27.8774 34.4117 27.9237 34.3286 27.9803 34.2533C28.1988 34.226 28.5145 34.2228 28.5913 34.4232C28.6154 34.495 28.6147 34.5732 28.5891 34.6445C28.5636 34.7158 28.5149 34.7758 28.4513 34.8143ZM29.3263 35.2805C29.2782 35.3119 29.2208 35.3246 29.1644 35.3162C29.108 35.3077 29.0565 35.2788 29.019 35.2345C28.9946 35.177 28.9827 35.1147 28.984 35.052C28.9853 34.9892 28.9998 34.9276 29.0265 34.8712C29.077 34.7398 29.151 34.6193 29.2446 34.516C29.3428 34.6317 29.4156 34.7679 29.4578 34.9153C29.4718 34.9828 29.4668 35.053 29.4435 35.1176C29.4202 35.1823 29.3796 35.2388 29.3263 35.2805ZM30.1959 34.3417C30.1405 34.3831 30.0764 34.4104 30.0088 34.4213C29.9411 34.4321 29.872 34.4262 29.807 34.404C29.6558 34.3523 29.5213 34.2588 29.4181 34.1336C29.3976 34.1141 29.3811 34.0905 29.3695 34.0644C29.37 34.0616 29.3731 34.0484 29.4013 34.0129C29.4603 33.9344 29.5349 33.8696 29.6199 33.8229C29.705 33.7762 29.7987 33.7486 29.8949 33.742H29.909C29.9955 33.7408 30.0806 33.7636 30.1556 33.8082C30.2305 33.8528 30.2923 33.9174 30.3345 33.9952C30.3738 34.0775 30.3054 34.2492 30.1959 34.3417ZM31.7617 33.574C31.7246 33.6706 31.6678 33.7579 31.5952 33.83C31.5227 33.9021 31.436 33.9573 31.341 33.992C31.215 34.0399 31.0761 34.0375 30.9517 33.9852C30.8615 33.9356 30.7886 33.8582 30.743 33.7639C30.6974 33.6696 30.6815 33.5629 30.6974 33.4588C30.7196 33.3486 30.7684 33.246 30.8393 33.1605C30.9102 33.075 31.001 33.0094 31.1031 32.9698C31.1938 32.9345 31.29 32.9168 31.3869 32.9175C31.5037 32.9181 31.6194 32.9407 31.7282 32.9844C31.7724 33.0751 31.7981 33.1742 31.8039 33.2756C31.8097 33.377 31.7953 33.4786 31.7617 33.574ZM31.6797 32.6282C31.7458 32.6015 31.8104 32.5711 31.8734 32.5373C31.8562 32.5843 31.8428 32.6328 31.8334 32.6821C31.7833 32.6609 31.732 32.6429 31.6797 32.6282ZM33.3399 32.8587C33.1836 33.0078 32.9817 33.0959 32.7691 33.1078C32.6309 33.1349 32.4884 33.1271 32.3537 33.085C32.3014 33.0683 32.2541 33.0382 32.2162 32.9975C32.1783 32.9569 32.151 32.9069 32.137 32.8524C32.1305 32.7535 32.154 32.6551 32.2041 32.5705C32.2569 32.4393 32.3452 32.3265 32.4583 32.2455C32.5366 32.1988 32.6258 32.1753 32.7161 32.1776C32.9372 32.1958 33.1525 32.2591 33.3496 32.3638C33.377 32.3756 33.4013 32.3938 33.4207 32.4169C33.43 32.4567 33.4431 32.4947 33.4564 32.5349C33.4568 32.6538 33.4154 32.7689 33.3399 32.8587ZM34.18 32.1835C34.1874 32.2822 34.1818 32.3815 34.1632 32.4786C34.1407 32.5664 34.0718 32.6634 33.9879 32.6693C33.949 32.6655 33.9116 32.6519 33.8789 32.6298C33.8462 32.6076 33.8192 32.5776 33.8003 32.5423C33.7867 32.515 33.7754 32.4866 33.7664 32.4574C33.765 32.4474 33.7671 32.4371 33.765 32.4271C33.7553 32.3808 33.7392 32.3362 33.7174 32.2945C33.7107 32.2626 33.703 32.2312 33.697 32.1995C33.6767 32.0861 33.6586 31.96 33.7076 31.8949C33.7237 31.8777 33.7432 31.8644 33.7648 31.8559C33.7864 31.8474 33.8095 31.8439 33.8326 31.8457C33.8665 31.8457 33.9001 31.8525 33.9315 31.8657C34.0257 31.9129 34.1097 31.9793 34.1782 32.0611C34.1782 32.1034 34.1791 32.1439 34.18 32.1835Z" fill="black"/>
</svg>
