<svg width="44" height="70" viewBox="0 0 44 70" fill="none" xmlns="http://www.w3.org/2000/svg">
<path d="M22 0C16.1652 0 10.5695 2.30468 6.44365 6.40704C2.31785 10.5094 0 16.0734 0 21.875C0 43.75 22 70 22 70C22 70 44 43.75 44 21.875C44 16.0734 41.6822 10.5094 37.5564 6.40704C33.4305 2.30468 27.8348 0 22 0ZM22 35C18.4991 35 15.1417 33.6172 12.6662 31.1558C10.1907 28.6944 8.8 25.356 8.8 21.875C8.8 18.394 10.1907 15.0556 12.6662 12.5942C15.1417 10.1328 18.4991 8.75 22 8.75C25.5009 8.75 28.8583 10.1328 31.3338 12.5942C33.8093 15.0556 35.2 18.394 35.2 21.875C35.2 25.356 33.8093 28.6944 31.3338 31.1558C28.8583 33.6172 25.5009 35 22 35Z" fill="#FFC914"/>
<ellipse cx="22.0943" cy="22.6441" rx="15.8526" ry="15.8219" fill="white"/>
<path d="M34 18.2149C32.0944 17.8088 31.1152 16.8119 30.304 15.7019C29.7952 15.0073 28.678 15.05 28.126 15.7169C26.866 17.2423 24.982 18.4618 22 18.4618C18.9916 18.4618 17.1016 16.91 15.8404 15.4492C15.3124 14.8377 14.3044 14.8469 13.8424 15.4988C13 16.6873 12.0208 17.7834 10 18.2149M34 29.7531C32.0944 29.3469 31.1152 28.35 30.304 27.2401C29.7952 26.5455 28.678 26.587 28.126 27.2551C26.866 28.7804 24.982 30 22 30C18.9916 30 17.1016 28.4481 15.8404 26.9874C15.3124 26.3759 14.3044 26.3851 13.8424 27.037C13.0012 28.2254 12.0208 29.3216 10 29.7531M34 23.984C32.0944 23.5779 31.1152 22.581 30.304 21.471C29.7952 20.7764 28.678 20.8179 28.126 21.486C26.866 23.0113 24.982 24.2309 22 24.2309C18.9916 24.2309 17.1016 22.679 15.8404 21.2183C15.3124 20.6068 14.3044 20.616 13.8424 21.2679C13.0012 22.4564 12.0208 23.5525 10 23.984" stroke="black" stroke-width="1.5" stroke-linecap="round" stroke-linejoin="round"/>
</svg>
